<?xml version="1.0" encoding="UTF-8"?>
<svg width="375px" height="667px" viewBox="0 0 375 667" version="1.1" xmlns="http://www.w3.org/2000/svg" xmlns:xlink="http://www.w3.org/1999/xlink">
    <!-- Generator: Sketch 51.2 (57519) - http://www.bohemiancoding.com/sketch -->
    <title>iPhone 8 Copy 19</title>
    <desc>Created with Sketch.</desc>
    <defs>
        <path d="M36.6577004,19 C38.6777926,19 41,17.4846282 41,15.2754892 C41,13.0663502 38.6777926,11 36.6577004,11 C34.6376083,11 33,12.790861 33,15 C33,17.209139 34.6376083,19 36.6577004,19 Z" id="path-1"></path>
        <filter x="-112.5%" y="-87.5%" width="250.0%" height="250.0%" filterUnits="objectBoundingBox" id="filter-2">
            <feOffset dx="-3" dy="-1" in="SourceAlpha" result="shadowOffsetOuter1"></feOffset>
            <feGaussianBlur stdDeviation="1.5" in="shadowOffsetOuter1" result="shadowBlurOuter1"></feGaussianBlur>
            <feColorMatrix values="0 0 0 0 0   0 0 0 0 0   0 0 0 0 0  0 0 0 0.441661005 0" type="matrix" in="shadowBlurOuter1"></feColorMatrix>
        </filter>
        <path d="M33.114913,28 C35.3875166,28 38,26.4846282 38,24.2754892 C38,22.0663502 35.3875166,20 33.114913,20 C30.8423093,20 29,21.790861 29,24 C29,26.209139 30.8423093,28 33.114913,28 Z" id="path-3"></path>
        <filter x="-100.0%" y="-100.0%" width="233.3%" height="250.0%" filterUnits="objectBoundingBox" id="filter-4">
            <feOffset dx="-3" dy="-2" in="SourceAlpha" result="shadowOffsetOuter1"></feOffset>
            <feGaussianBlur stdDeviation="1.5" in="shadowOffsetOuter1" result="shadowBlurOuter1"></feGaussianBlur>
            <feColorMatrix values="0 0 0 0 0   0 0 0 0 0   0 0 0 0 0  0 0 0 0.441661005 0" type="matrix" in="shadowBlurOuter1"></feColorMatrix>
        </filter>
        <path d="M60.950964,33.1301968 C64.5656203,33.1301968 68.7208673,30.2048398 68.7208673,25.9401965 C68.7208673,21.6755532 64.5656203,17.6865572 60.950964,17.6865572 C57.3363076,17.6865572 54.4060497,21.1437337 54.4060497,25.408377 C54.4060497,29.6730203 57.3363076,33.1301968 60.950964,33.1301968 Z" id="path-5"></path>
        <filter x="-73.4%" y="-55.0%" width="197.8%" height="184.2%" filterUnits="objectBoundingBox" id="filter-6">
            <feOffset dx="-4" dy="-2" in="SourceAlpha" result="shadowOffsetOuter1"></feOffset>
            <feGaussianBlur stdDeviation="1.5" in="shadowOffsetOuter1" result="shadowBlurOuter1"></feGaussianBlur>
            <feColorMatrix values="0 0 0 0 0   0 0 0 0 0   0 0 0 0 0  0 0 0 0.5 0" type="matrix" in="shadowBlurOuter1"></feColorMatrix>
        </filter>
        <path d="M57.0496619,50.8358757 C61.1815537,50.8358757 65.9313912,47.9105188 65.9313912,43.6458755 C65.9313912,39.3812322 61.1815537,35.3922362 57.0496619,35.3922362 C52.9177702,35.3922362 49.5682102,38.8494127 49.5682102,43.114056 C49.5682102,47.3786993 52.9177702,50.8358757 57.0496619,50.8358757 Z" id="path-7"></path>
        <filter x="-64.2%" y="-55.0%" width="185.6%" height="184.2%" filterUnits="objectBoundingBox" id="filter-8">
            <feOffset dx="-4" dy="-2" in="SourceAlpha" result="shadowOffsetOuter1"></feOffset>
            <feGaussianBlur stdDeviation="1.5" in="shadowOffsetOuter1" result="shadowBlurOuter1"></feGaussianBlur>
            <feColorMatrix values="0 0 0 0 0   0 0 0 0 0   0 0 0 0 0  0 0 0 0.5 0" type="matrix" in="shadowBlurOuter1"></feColorMatrix>
        </filter>
        <path d="M180.202927,92 C190.808411,92 203,83.8548765 203,71.9807544 C203,60.1066323 190.808411,49 180.202927,49 C169.597443,49 161,58.6258779 161,70.5 C161,82.3741221 169.597443,92 180.202927,92 Z" id="path-9"></path>
        <filter x="-25.0%" y="-19.8%" width="133.3%" height="130.2%" filterUnits="objectBoundingBox" id="filter-10">
            <feOffset dx="-4" dy="-2" in="SourceAlpha" result="shadowOffsetOuter1"></feOffset>
            <feGaussianBlur stdDeviation="1.5" in="shadowOffsetOuter1" result="shadowBlurOuter1"></feGaussianBlur>
            <feColorMatrix values="0 0 0 0 0   0 0 0 0 0   0 0 0 0 0  0 0 0 0.5 0" type="matrix" in="shadowBlurOuter1"></feColorMatrix>
        </filter>
        <path d="M168.946202,142 C181.066755,142 195,133.854877 195,121.980754 C195,110.106632 181.066755,99 168.946202,99 C156.82565,99 147,108.625878 147,120.5 C147,132.374122 156.82565,142 168.946202,142 Z" id="path-11"></path>
        <filter x="-21.9%" y="-19.8%" width="129.2%" height="130.2%" filterUnits="objectBoundingBox" id="filter-12">
            <feOffset dx="-4" dy="-2" in="SourceAlpha" result="shadowOffsetOuter1"></feOffset>
            <feGaussianBlur stdDeviation="1.5" in="shadowOffsetOuter1" result="shadowBlurOuter1"></feGaussianBlur>
            <feColorMatrix values="0 0 0 0 0   0 0 0 0 0   0 0 0 0 0  0 0 0 0.5 0" type="matrix" in="shadowBlurOuter1"></feColorMatrix>
        </filter>
    </defs>
    <g id="iPhone-8-Copy-19" stroke="none" stroke-width="1" fill="none" fill-rule="evenodd">
        <rect fill="#FFFFFF" x="0" y="0" width="375" height="667"></rect>
        <g id="Group-8" transform="translate(-30.000000, -2.000000)">
            <rect id="Rectangle-4-Copy" stroke="#979797" fill="#81E0E2" x="30.5" y="0.5" width="374" height="666"></rect>
            <path d="M288.977509,279.175948 C291.454884,273.258261 298.364124,269 306.5,269 C314.698661,269 321.651681,273.324237 324.079052,279.313245 C325.01406,279.108634 325.992531,279 327,279 C333.627417,279 339,283.70101 339,289.5 C339,295.29899 333.627417,300 327,300 C326.460207,300 325.928738,299.968814 325.407819,299.908389 C325.114597,299.968455 324.810983,300 324.5,300 L274.5,300 C272.014719,300 270,297.985281 270,295.5 C270,293.014719 272.014719,291 274.5,291 L277.569019,291 C277.200514,290.061663 277,289.051906 277,288 C277,283.029437 281.477153,279 287,279 C287.676989,279 288.338265,279.060545 288.977509,279.175948 Z" id="Combined-Shape-Copy-3" fill="#FFFFFF"></path>
            <path d="M320.977509,47.1759481 C323.454884,41.2582607 330.364124,37 338.5,37 C346.698661,37 353.651681,41.3242369 356.079052,47.313245 C357.01406,47.108634 357.992531,47 359,47 C365.627417,47 371,51.7010101 371,57.5 C371,63.2989899 365.627417,68 359,68 C358.460207,68 357.928738,67.9688142 357.407819,67.9083893 C357.114597,67.9684547 356.810983,68 356.5,68 L306.5,68 C304.014719,68 302,65.9852814 302,63.5 C302,61.0147186 304.014719,59 306.5,59 L309.569019,59 C309.200514,58.0616632 309,57.0519063 309,56 C309,51.0294373 313.477153,47 319,47 C319.676989,47 320.338265,47.0605454 320.977509,47.1759481 Z" id="Combined-Shape-Copy-4" fill="#FFFFFF"></path>
            <path d="M140.977509,159.175948 C143.454884,153.258261 150.364124,149 158.5,149 C166.698661,149 173.651681,153.324237 176.079052,159.313245 C177.01406,159.108634 177.992531,159 179,159 C185.627417,159 191,163.70101 191,169.5 C191,175.29899 185.627417,180 179,180 C178.460207,180 177.928738,179.968814 177.407819,179.908389 C177.114597,179.968455 176.810983,180 176.5,180 L126.5,180 C124.014719,180 122,177.985281 122,175.5 C122,173.014719 124.014719,171 126.5,171 L129.569019,171 C129.200514,170.061663 129,169.051906 129,168 C129,163.029437 133.477153,159 139,159 C139.676989,159 140.338265,159.060545 140.977509,159.175948 Z" id="Combined-Shape-Copy-5" fill="#FFFFFF"></path>
            <path d="M94,397.480392 C120,381.147059 146.916667,371.813725 174.75,369.480392 C202.583333,367.147059 229.5,373.313725 255.5,387.980392 L255.5,665.480392 L94,665.480392 L94,397.480392 Z" id="Path-8-Copy" fill="#216B21"></path>
            <path d="M181,414.574345 L181,664.074345 L406,664.074345 L406,371.074345 C382.83377,363.781158 361.500437,360.447825 342,361.074345 C322.499563,361.700865 302.332897,366.367532 281.5,375.074345 C251.734168,389.599224 230.734168,399.265891 218.5,404.074345 C206.265832,408.882799 193.765832,412.382799 181,414.574345 Z" id="Path-7-Copy" fill="#5E9817"></path>
            <path d="M31,396.164042 C64.6952293,395.307175 99.0285626,397.807175 134,403.664042 C168.971437,409.520909 203.304771,418.520909 237,430.664042 L237,663.164042 L31,663.164042 L31,396.164042 Z" id="Path-6-Copy" fill="#66AF22"></path>
            <path d="M33,494.118216 L33,666.618216 L405.5,666.618216 L405.5,416.618216 C369.296815,410.541921 314.963482,415.041921 242.5,430.118216 C204.095715,438.108369 169.426772,460.613107 132.5,472.118216 C110.667432,478.92049 77.5007657,486.253824 33,494.118216 Z" id="Path-3-Copy" fill="#86D021"></path>
            <path d="M30.5,493.5 C52.3757647,490.207319 69.4440378,487.207319 81.7048193,484.5 C93.9656008,481.792681 112.372562,476.959347 136.925703,470 C186.564552,471.431424 220.577838,472.586628 238.965563,473.465613 C264.231574,474.6734 284.100483,476.018195 298.572289,477.5 C328.842211,480.599414 364.484781,487.26608 405.5,497.5 L405.5,667.5 L30.5,667.5 L30.5,493.5 Z" id="Path-4-Copy" fill="#B6E836"></path>
            <g id="Group-7" transform="translate(129.000000, 405.000000)">
                <ellipse id="Oval-5" fill-opacity="0.442481884" fill="#6D7F41" cx="27.5" cy="82" rx="8.5" ry="5"></ellipse>
                <g id="Group-5">
                    <g id="Group-4" transform="translate(18.000000, 39.000000)" stroke="#175A4A">
                        <polyline id="Path-9" stroke-width="4" points="0 1 6.90625 14 6.90625 7.5 13 1"></polyline>
                        <path d="M6.5,0 L6.5,43" id="Path-10" stroke-width="5"></path>
                    </g>
                    <g id="Group">
                        <circle id="Oval-3" fill="#C7D000" cx="14.5" cy="31.5" r="9.5"></circle>
                        <circle id="Oval-3-Copy-7" fill="#C7D000" cx="30.5" cy="33.5" r="9.5"></circle>
                        <ellipse id="Oval-3-Copy-6" fill="#EAF400" cx="38.5" cy="22" rx="12.5" ry="12"></ellipse>
                        <ellipse id="Oval-3-Copy-4" fill="#C7D000" cx="7.5" cy="25" rx="7.5" ry="7"></ellipse>
                        <circle id="Oval-3-Copy-5" fill="#C7D000" cx="22" cy="19" r="16"></circle>
                        <ellipse id="Oval-4" fill="#EAF400" transform="translate(27.000000, 13.000000) rotate(-44.000000) translate(-27.000000, -13.000000) " cx="27" cy="13" rx="8" ry="10"></ellipse>
                        <path d="M39.5894549,31 C44.3332799,31 48.9982526,26.2113483 48.9982526,20.4393736 C48.9982526,18.0611652 49.0959652,15.557141 47.830012,13.403913 C46.0234633,10.3311996 42.3644931,8 39.5752512,8 C34.8314262,8 31,14.7769405 31,20.5489152 C31,26.32089 34.84563,31 39.5894549,31 Z" id="Oval-4-Copy" fill="#EAF400" transform="translate(40.000000, 19.500000) rotate(-44.000000) translate(-40.000000, -19.500000) "></path>
                        <g id="Oval-4-Copy-3" transform="translate(37.000000, 15.000000) rotate(-44.000000) translate(-37.000000, -15.000000) ">
                            <use fill="black" fill-opacity="1" filter="url(#filter-2)" xlink:href="#path-1"></use>
                            <use fill="#EAF400" fill-rule="evenodd" xlink:href="#path-1"></use>
                        </g>
                        <g id="Oval-4-Copy-4" transform="translate(33.500000, 24.000000) scale(-1, -1) rotate(-44.000000) translate(-33.500000, -24.000000) ">
                            <use fill="black" fill-opacity="1" filter="url(#filter-4)" xlink:href="#path-3"></use>
                            <use fill="#EAF400" fill-rule="evenodd" xlink:href="#path-3"></use>
                        </g>
                    </g>
                </g>
            </g>
            <g id="Group-6" transform="translate(239.000000, 422.000000)">
                <ellipse id="Oval-5-Copy" fill-opacity="0.442481884" fill="#6D7F41" cx="41.5" cy="130" rx="8.5" ry="5"></ellipse>
                <g id="Group-2">
                    <polyline id="Path-9" stroke="#175A4A" stroke-width="4" points="25 73 38.28125 93 38.28125 83 50 73"></polyline>
                    <path d="M38,65 L38,131" id="Path-10" stroke="#175A4A" stroke-width="5"></path>
                    <g id="Group">
                        <ellipse id="Oval-3" fill="#005200" cx="23.4615385" cy="55.8461538" rx="15.7692308" ry="17.7692308"></ellipse>
                        <ellipse id="Oval-3-Copy-7" fill="#005200" cx="51.9230769" cy="59.6538462" rx="15.7692308" ry="17.3461538"></ellipse>
                        <ellipse id="Oval-3-Copy-6" fill="#005200" cx="63.0769231" cy="38.9230769" rx="20" ry="22"></ellipse>
                        <circle id="Oval-3-Copy-4" fill="#005200" cx="12.6923077" cy="43.1538462" r="12.6923077"></circle>
                        <ellipse id="Oval-3-Copy-5" fill="#005200" cx="36.5384615" cy="34.6923077" rx="26.5384615" ry="29.6153846"></ellipse>
                        <ellipse id="Oval-4" fill="#006000" transform="translate(45.285331, 23.677074) rotate(-44.000000) translate(-45.285331, -23.677074) " cx="45.2853313" cy="23.6770745" rx="13.4615385" ry="18.6153846"></ellipse>
                        <path d="M66.2325854,55.017482 C73.6671878,55.017482 80.9782117,46.4879758 80.9782117,36.2069828 C80.9782117,31.9709379 81.1313485,27.5107909 79.1473254,23.6754793 C76.3160717,18.202388 70.581672,14.0500747 66.2103251,14.0500747 C58.7757227,14.0500747 52.771047,26.1211043 52.771047,36.4020974 C52.771047,46.6830904 58.797983,55.017482 66.2325854,55.017482 Z" id="Oval-4-Copy" fill="#006000" transform="translate(66.875999, 34.533778) rotate(-44.000000) translate(-66.875999, -34.533778) "></path>
                        <g id="Oval-4-Copy-3" transform="translate(61.563458, 25.408377) rotate(-44.000000) translate(-61.563458, -25.408377) ">
                            <use fill="black" fill-opacity="1" filter="url(#filter-6)" xlink:href="#path-5"></use>
                            <use fill="#006000" fill-rule="evenodd" xlink:href="#path-5"></use>
                        </g>
                        <g id="Oval-4-Copy-4" transform="translate(57.749801, 43.114056) scale(-1, -1) rotate(-44.000000) translate(-57.749801, -43.114056) ">
                            <use fill="black" fill-opacity="1" filter="url(#filter-8)" xlink:href="#path-7"></use>
                            <use fill="#006000" fill-rule="evenodd" xlink:href="#path-7"></use>
                        </g>
                    </g>
                </g>
            </g>
            <g id="Group-3" opacity="0.675055804" transform="translate(31.000000, 587.000000)" fill="#6AAD19">
                <polygon id="Path-11" points="0 16 7 0 12.5 21 12.5 10.5 20 21 20 10.5 28.5 21 34.5 0 34.5 28 42.5 16 42.5 28 59 10.5 59 81.5 0 81.5"></polygon>
                <polygon id="Path-11-Copy-2" points="116 16 123 0 128.5 21 128.5 10.5 136 21 136 10.5 144.5 21 150.5 0 150.5 28 158.5 16 158.5 28 175 10.5 175 81.5 116 81.5"></polygon>
                <polygon id="Path-11-Copy-4" points="232 16 239 0 244.5 21 244.5 10.5 252 21 252 10.5 260.5 21 266.5 0 266.5 28 274.5 16 274.5 28 291 10.5 291 81.5 232 81.5"></polygon>
                <polygon id="Path-11-Copy" points="58 16 65 0 70.5 21 70.5 10.5 78 21 78 10.5 86.5 21 92.5 0 92.5 28 100.5 16 100.5 28 117 10.5 117 81.5 58 81.5"></polygon>
                <polygon id="Path-11-Copy-3" points="174 16 181 0 186.5 21 186.5 10.5 194 21 194 10.5 202.5 21 208.5 0 208.5 28 216.5 16 216.5 28 233 10.5 233 81.5 174 81.5"></polygon>
                <polygon id="Path-11-Copy-5" points="290 16 297 0 302.5 21 302.5 10.5 310 21 310 10.5 318.5 21 324.5 0 324.5 28 332.5 16 332.5 28 349 10.5 349 81.5 290 81.5"></polygon>
                <polygon id="Path-11-Copy-6" points="316 16 323 0 328.5 21 328.5 10.5 336 21 336 10.5 344.5 21 350.5 0 350.5 28 358.5 16 358.5 28 375 10.5 375 81.5 316 81.5"></polygon>
            </g>
        </g>
        <g id="Group" transform="translate(369.775748, 229.260642) scale(-1, 1) rotate(-77.000000) translate(-369.775748, -229.260642) translate(236.275748, 121.760642)">
            <ellipse id="Oval-3" fill="#005200" cx="69.5" cy="155.5" rx="46.5" ry="49.5"></ellipse>
            <ellipse id="Oval-3-Copy-7" fill="#005200" cx="153.5" cy="166.5" rx="46.5" ry="48.5"></ellipse>
            <ellipse id="Oval-3-Copy-6" fill="#005200" cx="186" cy="108.5" rx="59" ry="61.5"></ellipse>
            <ellipse id="Oval-3-Copy-4" fill="#005200" cx="37.5" cy="120.5" rx="37.5" ry="35.5"></ellipse>
            <ellipse id="Oval-3-Copy-5" fill="#005200" cx="108.5" cy="96.5" rx="78.5" ry="82.5"></ellipse>
            <ellipse id="Oval-4" fill="#006000" transform="translate(134.000000, 66.000000) rotate(-44.000000) translate(-134.000000, -66.000000) " cx="134" cy="66" rx="40" ry="52"></ellipse>
            <path d="M195.606931,153 C217.481235,153 238.991943,129.264944 238.991943,100.656026 C238.991943,88.8683842 239.442506,76.4571334 233.605055,65.7846123 C225.274858,50.5546417 208.40294,39 195.541436,39 C173.667132,39 156,72.5900528 156,101.198971 C156,129.807889 173.732627,153 195.606931,153 Z" id="Oval-4-Copy" fill="#006000" transform="translate(197.500000, 96.000000) rotate(-44.000000) translate(-197.500000, -96.000000) "></path>
            <g id="Oval-4-Copy-3" transform="translate(182.000000, 70.500000) rotate(-44.000000) translate(-182.000000, -70.500000) ">
                <use fill="black" fill-opacity="1" filter="url(#filter-10)" xlink:href="#path-9"></use>
                <use fill="#006000" fill-rule="evenodd" xlink:href="#path-9"></use>
            </g>
            <g id="Oval-4-Copy-4" transform="translate(171.000000, 120.500000) scale(-1, -1) rotate(-44.000000) translate(-171.000000, -120.500000) ">
                <use fill="black" fill-opacity="1" filter="url(#filter-12)" xlink:href="#path-11"></use>
                <use fill="#006000" fill-rule="evenodd" xlink:href="#path-11"></use>
            </g>
        </g>
    </g>
</svg>