<?xml version="1.0" encoding="UTF-8" standalone="no"?>
<!DOCTYPE svg PUBLIC "-//W3C//DTD SVG 1.1//EN" "http://www.w3.org/Graphics/SVG/1.1/DTD/svg11.dtd">
<svg width="100%" height="100%" viewBox="0 0 630 584" version="1.1" xmlns="http://www.w3.org/2000/svg" xmlns:xlink="http://www.w3.org/1999/xlink" xml:space="preserve" xmlns:serif="http://www.serif.com/" style="fill-rule:evenodd;clip-rule:evenodd;stroke-linecap:round;stroke-linejoin:round;stroke-miterlimit:1.5;">
    <g transform="matrix(1.13806,0,0,1,-64.1866,-30)">
        <ellipse cx="244" cy="287" rx="134" ry="157" style="fill:rgb(247,215,194);"/>
    </g>
    <path d="M101,584L117,506L180,423L233,414L284,453L327,507L352,543L366,584L101,584" style="fill:rgb(247,215,194);stroke:black;stroke-width:0.75px;"/>
    <path d="M110,387L41,444L18,511L20,584L101,584L119,514L138.665,466L180,424L110,387Z" style="fill:rgb(255,0,0);stroke:black;stroke-width:0.75px;"/>
    <path d="M233.5,414L315,380L359,414L404,473L418,539L416,584.1L366,584L338,520L298,467L233.5,414Z" style="fill:rgb(255,0,0);stroke:black;stroke-width:0.75px;"/>
    <g transform="matrix(0.1,0,0,-0.1,0,584)">
        <path d="M893,5775C822,5756 714,5700 663,5656C609,5609 517,5487 469,5397C380,5229 360,5189 312,5078C241,4916 204,4781 164,4541C145,4428 119,4288 105,4230C60,4035 37,3840 43,3695C51,3504 78,3435 157,3409C212,3391 256,3406 309,3458C365,3514 393,3570 455,3751C512,3919 534,4003 560,4160C586,4319 586,4441 561,4495C543,4535 489,4590 468,4590C462,4590 447,4601 434,4615L412,4639L461,4812C553,5129 584,5214 633,5282C753,5449 895,5551 1013,5554C1119,5556 1244,5467 1350,5314C1425,5205 1447,5151 1465,5020C1474,4957 1483,4895 1486,4883C1490,4863 1479,4855 1400,4815C1300,4765 1242,4712 1027,4475C762,4183 651,3991 571,3689C475,3331 469,3156 536,2805C566,2653 619,2482 665,2389C713,2295 807,2158 894,2058C936,2010 970,1969 970,1967C970,1965 942,1955 908,1944C815,1916 686,1825 552,1692C426,1567 378,1502 276,1314C84,964 34,516 136,69L152,0L318,2L483,5L547,205C665,581 696,787 641,831C571,888 516,830 437,620C392,498 298,180 268,45C265,34 260,52 255,85C244,167 256,487 274,588C303,746 363,953 415,1068L441,1125L523,1125C595,1125 612,1129 659,1155C731,1195 836,1285 877,1341C942,1432 958,1598 908,1678C897,1696 889,1713 891,1714C905,1727 1014,1792 1058,1814L1111,1841L1178,1792C1311,1696 1483,1610 1604,1579L1653,1567L1614,1536C1423,1386 1249,1154 1106,859C969,577 923,408 913,153L907,0L1068,0L1075,53C1094,198 1192,546 1211,535C1216,531 1259,500 1306,464C1411,385 1493,343 1635,295C1801,240 1890,221 2057,209C2435,180 2781,267 3085,467C3135,500 3195,543 3218,563C3242,584 3263,600 3265,600C3270,600 3393,384 3430,310C3448,274 3485,191 3511,125L3559,5L3631,2L3702,-1L3695,32C3641,298 3607,402 3508,610C3437,760 3380,853 3284,980C3162,1140 3083,1226 2967,1326C2818,1454 2732,1514 2631,1562L2547,1601L2656,1649C2776,1702 2924,1785 3042,1865L3119,1918L3200,1864C3308,1792 3427,1694 3527,1597L3610,1516L3572,1485C3527,1448 3441,1358 3418,1321C3378,1262 3415,1190 3485,1190C3526,1190 3634,1242 3703,1294C3729,1314 3752,1330 3754,1330C3763,1330 3860,1169 3903,1085C3928,1035 3965,946 3986,886L4023,777L3986,747C3942,712 3883,612 3844,510C3820,445 3816,420 3816,325C3815,169 3839,104 3923,36L3962,5L4110,2L4259,-1L4270,42C4276,66 4283,91 4286,99C4298,134 4320,317 4320,379C4320,696 4205,1066 4011,1375C3977,1429 3950,1475 3950,1479C3950,1484 4129,1628 4348,1800C4566,1972 4781,2143 4825,2180C4869,2217 4964,2284 5035,2328C5166,2410 5215,2448 5353,2573L5429,2641L5468,2616C5609,2527 5823,2527 6006,2615C6173,2695 6296,2907 6275,3076C6261,3192 6161,3325 6038,3394C5941,3447 5851,3471 5725,3477C5594,3484 5525,3468 5458,3417C5399,3372 5325,3278 5287,3200C5247,3115 5238,2985 5265,2882L5283,2816L5234,2773C5207,2749 5129,2691 5061,2642C4860,2501 4710,2388 4465,2194C4339,2093 4136,1933 4015,1837L3795,1662L3708,1745C3562,1884 3471,1948 3337,2007C3292,2026 3253,2044 3251,2046C3249,2048 3280,2084 3319,2126C3492,2312 3625,2550 3718,2840C3761,2975 3778,3066 3791,3235C3822,3619 3737,3956 3532,4264C3441,4401 3237,4593 3080,4691C2991,4746 2799,4833 2685,4870C2647,4882 2612,4895 2608,4899C2597,4908 2674,5112 2720,5198C2772,5293 2813,5344 2879,5391C3079,5534 3347,5480 3626,5240C3748,5135 3894,4962 4016,4777C4074,4690 4123,4613 4126,4607C4129,4598 4119,4596 4090,4598C4055,4602 4046,4598 4016,4568C3957,4509 3955,4405 4009,4130C4084,3752 4178,3508 4276,3440C4301,3424 4324,3417 4357,3418C4412,3418 4446,3441 4477,3496C4517,3566 4523,3626 4511,3818C4495,4048 4479,4136 4420,4310C4393,4390 4357,4505 4340,4565C4284,4763 4144,5022 4005,5189C3903,5311 3749,5457 3656,5519C3554,5588 3394,5665 3305,5686C3259,5698 3195,5704 3120,5704C3022,5704 2993,5700 2923,5676C2766,5625 2620,5502 2531,5345C2475,5248 2419,5085 2412,5003L2407,4940L2376,4945C2315,4956 2113,4970 2025,4970C1952,4970 1797,4953 1730,4938C1720,4936 1713,4961 1704,5025C1676,5224 1650,5297 1551,5448C1447,5605 1290,5730 1141,5774C1075,5793 964,5794 893,5775ZM2165,4753C2303,4750 2384,4744 2425,4733C2458,4725 2504,4716 2527,4715C2581,4712 2818,4597 2950,4509C3076,4425 3269,4234 3343,4120C3412,4012 3450,3937 3488,3830C3544,3670 3555,3596 3554,3370C3554,3131 3543,3060 3475,2860C3393,2622 3294,2455 3120,2262C2992,2120 2923,2063 2759,1965C2520,1822 2371,1773 2109,1749C1822,1722 1564,1785 1336,1937C1151,2060 931,2302 846,2475C778,2611 726,2807 696,3042C662,3298 734,3688 863,3945C970,4161 1202,4434 1380,4557C1441,4598 1549,4652 1640,4685C1746,4723 1932,4770 1950,4763C1958,4759 2055,4755 2165,4753ZM2461,1503C2740,1289 2960,1055 3165,756C3206,696 3240,641 3240,633C3240,617 3076,534 2950,487C2693,391 2346,346 2040,369C1790,389 1560,446 1376,534C1212,613 1220,592 1289,747C1415,1030 1574,1271 1754,1449L1839,1533L1925,1527C2014,1521 2252,1534 2330,1549C2355,1554 2378,1558 2381,1559C2385,1560 2421,1535 2461,1503Z" style="fill-rule:nonzero;"/>
        <path d="M2525,4201C2514,4196 2491,4191 2475,4191C2458,4190 2426,4178 2403,4164C2207,4036 2205,3496 2400,2991C2433,2906 2521,2776 2579,2728C2678,2644 2793,2677 2859,2809C2928,2947 2960,3103 2967,3345C2973,3540 2958,3666 2909,3833C2857,4007 2785,4117 2684,4176C2639,4203 2557,4215 2525,4201Z" style="fill-rule:nonzero;"/>
        <path d="M1597,4130C1504,4097 1471,4068 1436,3990C1399,3908 1388,3808 1387,3535C1385,3280 1390,3231 1445,3002C1487,2828 1549,2727 1639,2687C1744,2641 1861,2718 1918,2873C1946,2947 1995,3132 2015,3240C2036,3352 2036,3593 2016,3723C1972,3995 1857,4161 1715,4159C1693,4159 1640,4146 1597,4130Z" style="fill-rule:nonzero;"/>
        <path d="M2425,2519C2409,2516 2359,2512 2315,2511C2246,2510 2118,2497 1936,2473L1888,2467L1892,2421C1902,2315 2008,2166 2106,2121C2224,2065 2368,2123 2434,2253C2456,2297 2463,2328 2469,2405C2477,2515 2471,2530 2425,2519Z" style="fill-rule:nonzero;"/>
    </g>
</svg>
