<?xml version="1.0" encoding="UTF-8" standalone="no"?>
<!DOCTYPE svg PUBLIC "-//W3C//DTD SVG 1.1//EN" "http://www.w3.org/Graphics/SVG/1.1/DTD/svg11.dtd">
<svg width="100%" height="100%" viewBox="0 0 582 584" version="1.1" xmlns="http://www.w3.org/2000/svg" xmlns:xlink="http://www.w3.org/1999/xlink" xml:space="preserve" xmlns:serif="http://www.serif.com/" style="fill-rule:evenodd;clip-rule:evenodd;stroke-linecap:round;stroke-linejoin:round;stroke-miterlimit:1.5;">
    <path d="M207,449L271,454L243,523L236,584L225,584L206,538L207,449Z" style="fill:rgb(255,0,0);stroke:black;stroke-width:0.75px;"/>
    <path d="M345,433L387,475L416,516.5L426,550L431,584L537,584L549,554L557.901,498L517,427L460,374L418,356L345,433Z" style="fill:rgb(255,0,0);stroke:black;stroke-width:0.75px;"/>
    <g transform="matrix(1,0,0,1,13,-98.8125)">
        <ellipse cx="258" cy="395" rx="152" ry="148" style="fill:rgb(247,215,194);"/>
    </g>
    <path d="M238.5,584L238.5,530L271,449L345,435L377,470L405,502L423,532L431,584L238.5,584Z" style="fill:rgb(247,215,194);stroke:black;stroke-width:0.75px;"/>
    <g transform="matrix(0.1,0,0,-0.1,0,584)">
        <path d="M1963,5750C1879,5738 1793,5712 1620,5645C1366,5547 1217,5447 1146,5326C1085,5224 1088,5140 1155,5082C1202,5040 1252,5026 1345,5026C1521,5028 1798,5161 1930,5307C2011,5397 2033,5442 2033,5511C2033,5580 2025,5578 2165,5551C2361,5513 2527,5449 2647,5364C2896,5187 3054,4912 3090,4596C3096,4546 3103,4495 3106,4483C3110,4462 3106,4460 3075,4460C3055,4460 2966,4478 2877,4499C2655,4553 2629,4555 2465,4530C2084,4472 1877,4398 1655,4241C1558,4173 1555,4171 1546,4193C1467,4401 1278,4644 1111,4755C987,4836 932,4855 815,4855C726,4855 709,4852 662,4828C552,4771 450,4662 380,4529C324,4421 216,4141 191,4038C127,3775 125,3757 128,3235C130,2857 134,2740 146,2683C166,2587 183,2548 220,2517C308,2443 427,2499 480,2639C502,2696 542,2898 565,3065C579,3167 580,3202 570,3305C556,3445 536,3549 515,3589C497,3625 414,3699 383,3706C370,3710 360,3718 360,3725C360,3763 446,4071 485,4175C586,4441 676,4578 775,4615C815,4631 822,4631 868,4616C935,4594 1042,4517 1110,4443C1140,4411 1218,4305 1284,4208L1402,4031L1328,3948C1287,3902 1235,3836 1211,3801C1160,3727 1070,3542 1040,3450C974,3254 946,2984 969,2780C1016,2367 1148,2038 1378,1758L1435,1689L1436,1587C1437,1481 1454,1401 1492,1326C1519,1273 1601,1188 1666,1144C1696,1125 1720,1108 1720,1106C1720,1105 1711,1086 1701,1064C1648,954 1615,725 1623,520C1628,377 1643,327 1696,280C1725,255 1739,250 1784,250C1845,250 1894,279 1950,350L1983,392L2011,315C2043,227 2099,112 2141,45L2170,0L2244,0C2294,0 2320,4 2323,13C2327,22 2329,22 2329,13C2330,5 2344,0 2364,0L2397,0L2409,107C2416,166 2426,236 2432,261L2443,308L2520,260C2641,184 2733,141 2838,112C2928,88 2950,86 3130,85C3311,85 3332,87 3427,112C3599,158 3799,255 3934,358C3966,383 4026,436 4068,477C4123,532 4145,548 4151,538C4164,517 4248,252 4264,180C4272,144 4282,89 4285,58C4292,2 4293,0 4321,0L4350,0L4344,57C4317,319 4261,572 4197,733L4163,816L4220,778C4294,729 4392,692 4473,684L4538,677L4564,598C4611,456 4703,279 4764,212C4828,144 4870,120 4930,120C5016,120 5086,188 5119,305C5139,377 5171,682 5165,740C5150,871 5094,1016 5050,1040C4973,1081 4947,1012 4961,803C4969,680 4969,670 4939,542L4907,409L4888,440C4878,457 4840,530 4805,601L4740,730L4813,802C4976,965 5012,1167 4914,1363C4864,1462 4758,1581 4675,1633C4614,1670 4494,1710 4424,1717L4362,1723L4271,1835C4221,1897 4180,1950 4180,1953C4180,1957 4202,1993 4229,2035C4256,2076 4280,2115 4282,2121C4290,2144 4318,2117 4324,2080C4332,2032 4417,1902 4466,1865C4524,1821 4565,1811 4687,1810L4800,1810L4877,1742C5002,1632 5142,1462 5236,1309C5272,1250 5273,1245 5262,1206C5216,1046 5216,1051 5235,966C5244,922 5266,847 5283,800C5309,729 5323,706 5370,658C5401,627 5437,600 5451,598C5472,595 5475,589 5478,550C5485,471 5458,342 5400,168L5344,0L5373,0C5399,0 5405,7 5450,104C5533,279 5550,343 5568,542C5583,708 5583,731 5566,902C5533,1245 5460,1432 5270,1668C5132,1840 4977,1984 4804,2101C4694,2175 4533,2257 4460,2276C4424,2285 4390,2294 4383,2296C4374,2298 4380,2325 4400,2386C4448,2528 4472,2667 4477,2845C4486,3110 4441,3325 4325,3582C4247,3755 4158,3884 4021,4021C3844,4198 3647,4318 3415,4391C3333,4417 3311,4428 3315,4440C3342,4508 3322,4712 3274,4879C3181,5198 2932,5497 2635,5645C2475,5725 2364,5752 2175,5756C2093,5757 1997,5755 1963,5750ZM3035,4286C3351,4218 3594,4088 3802,3877C3924,3754 3985,3668 4057,3519C4153,3322 4198,3155 4207,2960C4220,2687 4152,2419 4016,2206L3979,2147L3852,2272C3782,2340 3708,2407 3688,2420L3651,2445L3679,2475C3695,2491 3742,2556 3784,2617C3937,2845 3967,3068 3879,3318C3797,3549 3667,3729 3475,3875C3257,4041 2944,4129 2761,4074C2591,4024 2375,3818 2305,3639C2264,3535 2257,3482 2263,3328C2275,3029 2360,2821 2556,2608C2670,2485 2810,2408 3020,2354C3108,2332 3303,2333 3377,2356C3429,2372 3431,2372 3445,2354C3452,2344 3477,2315 3499,2290C3522,2266 3540,2242 3540,2238C3540,2234 3601,2167 3675,2088L3811,1945L3753,1891C3588,1739 3227,1541 3013,1486C2858,1446 2590,1428 2434,1446L2384,1452L2384,1559C2385,1658 2383,1670 2354,1730C2308,1826 2249,1895 2163,1951C2072,2010 1978,2041 1890,2042C1808,2043 1755,2028 1658,1980L1582,1942L1562,1963C1524,2006 1448,2125 1404,2213C1280,2460 1210,2825 1238,3079C1284,3491 1482,3803 1852,4047C2023,4159 2231,4236 2560,4306C2657,4326 2895,4317 3035,4286ZM2978,3999C3093,3974 3239,3922 3330,3872C3405,3832 3512,3732 3576,3644C3600,3610 3645,3530 3676,3466C3726,3361 3750,3321 3733,3368C3730,3377 3730,3382 3734,3379C3737,3376 3754,3333 3771,3284C3799,3206 3803,3178 3807,3059C3811,2954 3808,2910 3796,2859C3746,2665 3634,2542 3443,2473C3230,2396 2976,2424 2756,2550C2617,2630 2581,2670 2492,2849C2402,3029 2368,3124 2344,3262C2330,3339 2329,3367 2338,3397C2344,3418 2361,3485 2375,3545C2413,3705 2446,3769 2533,3854C2613,3933 2706,3988 2790,4006C2865,4023 2868,4023 2978,3999ZM4084,1692L4131,1649L4092,1606C4038,1548 4006,1488 3980,1401C3961,1340 3958,1312 3962,1233L3967,1137L3921,1188C3866,1248 3776,1322 3674,1391C3633,1418 3600,1444 3601,1448C3601,1452 3655,1489 3721,1530C3787,1571 3878,1639 3923,1681C4015,1766 4004,1766 4084,1692ZM3781,1047C3854,969 3937,874 3965,835C4038,734 4120,604 4120,586C4120,550 3850,406 3680,351C3380,254 3002,221 2761,270C2630,297 2470,347 2464,364C2455,387 2507,560 2564,696C2609,806 2773,1156 2784,1167C2786,1169 2834,1177 2891,1186C3062,1211 3262,1273 3400,1343L3445,1367L3546,1277C3602,1229 3707,1125 3781,1047ZM2405,1180C2466,1173 2536,1165 2561,1162L2607,1155L2543,1045C2442,872 2373,724 2343,615C2317,519 2316,505 2316,273C2315,140 2312,37 2308,44C2289,78 2238,249 2216,351C2165,585 2144,825 2158,1013L2168,1142L2201,1171C2227,1193 2242,1199 2265,1196C2282,1193 2345,1186 2405,1180ZM1956,1048C1941,988 1928,793 1934,688L1940,571L1899,540C1877,522 1857,510 1853,513C1843,524 1868,806 1891,938C1914,1064 1916,1070 1939,1070C1958,1070 1961,1066 1956,1048Z" style="fill-rule:nonzero;"/>
        <path d="M2035,3231C1991,3211 1899,3170 1830,3140C1761,3110 1704,3085 1702,3084C1695,3080 1732,2945 1770,2828C1846,2601 1950,2410 2040,2333C2092,2289 2118,2278 2171,2278C2265,2278 2320,2340 2341,2471C2358,2576 2320,2803 2253,2993C2217,3098 2135,3270 2122,3269C2118,3269 2079,3252 2035,3231Z" style="fill-rule:nonzero;"/>
        <path d="M2622,2238C2611,2220 2597,2192 2591,2177C2585,2162 2562,2125 2539,2095C2453,1980 2443,1814 2527,1876C2571,1909 2611,1975 2649,2080C2673,2143 2690,2178 2695,2170C2715,2138 2851,2089 2975,2070C3109,2050 3158,2054 3146,2086C3143,2095 3140,2107 3140,2114C3140,2121 3123,2132 3103,2139C3082,2146 3031,2168 2990,2187C2924,2217 2876,2229 2674,2266C2647,2271 2640,2268 2622,2238Z" style="fill-rule:nonzero;"/>
        <path d="M2720,3881C2664,3863 2590,3818 2562,3784C2545,3764 2521,3720 2509,3688C2490,3636 2488,3617 2493,3527C2505,3331 2571,3100 2670,2905C2830,2591 2959,2462 3126,2452C3206,2447 3248,2461 3308,2515C3455,2647 3479,2900 3373,3210C3323,3359 3243,3512 3156,3627C3039,3783 2962,3844 2845,3874C2781,3891 2758,3892 2720,3881Z" style="fill-rule:nonzero;"/>
    </g>
</svg>
