<?xml version="1.0" encoding="UTF-8" standalone="no"?>
<!DOCTYPE svg PUBLIC "-//W3C//DTD SVG 1.1//EN" "http://www.w3.org/Graphics/SVG/1.1/DTD/svg11.dtd">
<svg width="100%" height="100%" viewBox="0 0 138 196" version="1.1" xmlns="http://www.w3.org/2000/svg" xmlns:xlink="http://www.w3.org/1999/xlink" xml:space="preserve" xmlns:serif="http://www.serif.com/" style="fill-rule:evenodd;clip-rule:evenodd;stroke-linejoin:round;stroke-miterlimit:1.41421;">
    <g transform="matrix(1,0,0,1,-138.121,-9.66746)">
        <g id="svgg">
            <path id="path0" d="M187.527,49.513C185.297,49.802 179.995,51.49 177.743,52.628C174.397,54.318 170.661,61.979 169.238,70.068C168.235,75.769 169.708,84.55 172.411,88.982C177.618,97.522 183.064,102.661 189.083,104.715C196.173,107.135 200.774,106.865 209.583,103.51C213.809,101.901 219.36,97.806 220.987,95.097C227.561,84.153 226.634,72.43 218.514,63.833C207.589,52.267 198.538,48.084 187.527,49.513M185.719,62.345C187.77,62.915 190.365,66.496 191.091,69.761C192.01,73.891 190.396,80.832 187.896,83.505C184.823,86.79 181.39,85.982 179.357,81.495C175.478,72.933 179.563,60.636 185.719,62.345M208.675,62.838C210.548,64.04 211.432,65.529 212.533,69.333C212.846,70.415 212.758,76.88 212.412,78.246C211.622,81.362 209.517,84.148 206.567,85.978C203.478,87.896 200.959,85.783 199.671,80.196C197.93,72.646 198.799,67.677 202.417,64.494C205.091,62.141 206.859,61.673 208.675,62.838M187.083,90.053C189.447,90.695 195.809,91.041 197.917,90.642C200.717,90.113 202.331,90.89 202.333,92.769C202.334,93.783 200.997,95.167 200.018,95.167C199.781,95.167 199.465,95.597 198.824,96.792C196.152,101.772 191.778,102.049 188.345,97.456C187.713,96.609 186.291,94.998 185.184,93.875C182.643,91.296 182.475,90.716 184.055,89.982C184.838,89.618 185.544,89.635 187.083,90.053M200.833,111.001C200.054,111.074 198.179,111.143 196.667,111.155L193.917,111.177L192.583,112.469C189.296,115.653 183.979,123.611 181.411,129.189C180.215,131.785 179.308,134.086 179.432,134.21C179.474,134.252 179.435,134.483 179.343,134.723C179.001,135.623 180.839,136.535 185.25,137.654C195.287,140.2 209.067,139.456 219.042,135.832C220.722,135.221 220.671,135.363 219.929,133.321C217.135,125.634 213.196,119.452 207.725,114.167C204.661,111.207 203.642,110.739 200.833,111.001M177.516,140.044C176.254,146.378 175.709,152.716 176.174,155.653C176.269,156.256 176.386,157 176.434,157.305C176.516,157.836 176.629,157.913 179.052,159.087C187.689,163.273 201.517,165.172 211.211,163.503C216.099,162.662 222.621,160.935 223.589,160.225C224.192,159.783 224.022,153.965 223.259,148.917C222.927,146.717 222.545,143.979 222.411,142.833C222.277,141.688 222.131,140.592 222.086,140.399C222.007,140.054 221.961,140.061 219.628,140.773C207.959,144.337 188.286,144.019 179.833,140.13C179.237,139.856 178.511,139.529 178.22,139.402L177.689,139.172L177.516,140.044" style="fill:rgb(243,211,195);"/>
            <path id="path1" d="M178.579,107.471C178.593,115.38 172.515,120.967 166.965,118.147C165.913,117.613 165.889,117.646 164.919,120.911C163.932,124.234 163.685,126.169 163.674,130.667C163.663,135.353 164.921,140.457 167.546,146.38C168.848,149.315 169.566,149.919 169.85,148.315C169.905,148.004 170.375,145.912 170.895,143.667C174.43,128.403 179.934,117.871 187.98,110.973L189.043,110.061L187.94,109.699C186.34,109.174 181.98,107.042 180.333,105.98C179.554,105.477 178.84,105.02 178.745,104.963C178.631,104.894 178.575,105.725 178.579,107.471M214.732,108.001C214.631,108.102 213.694,108.483 212.649,108.847C211.605,109.212 210.648,109.546 210.523,109.59C210.376,109.642 210.842,110.239 211.856,111.297C216.802,116.451 222.977,125.721 225.87,132.333C228.248,137.769 229.354,141.305 230.168,146.083C230.372,147.275 230.604,148.376 230.686,148.531C230.767,148.685 230.833,149.256 230.833,149.799C230.833,152.482 231.118,152.837 232.026,151.289C233.856,148.169 233.854,148.219 232.273,145.605C229.785,141.491 229.805,137.164 232.333,132.584C233.089,131.214 235.821,128.672 236.542,128.668C237.348,128.664 234.574,123.567 232.51,121.261C232.177,120.888 231.308,119.833 230.58,118.917C227.313,114.803 223.409,111.734 218.27,109.238C215.521,107.903 215.009,107.724 214.732,108.001" style="fill:rgb(226,27,27);"/>
            <path id="path2" d="M220.25,9.769C216.183,10.815 212.103,13.491 210.116,16.417C209.742,16.967 208.761,18.317 207.936,19.417C207.11,20.517 206.233,21.792 205.986,22.25C204.456,25.09 204.15,25.747 203.656,27.25C203.355,28.167 203.048,29.067 202.974,29.25C201.744,32.295 200.8,35.514 200.077,39.127C199.505,41.987 198.798,43.856 198.333,43.74C192.901,42.377 186.679,42.618 183.14,44.327L182.525,44.624L181.75,43.021C181.324,42.138 180.729,41.042 180.428,40.583C179.311,38.881 176.957,34.471 176.603,33.417C176.449,32.958 175.879,31.833 175.336,30.917C174.794,30 174.111,28.837 173.818,28.333C173.526,27.829 172.97,27.004 172.584,26.5C172.197,25.996 171.321,24.721 170.637,23.667C169.953,22.613 169.023,21.345 168.572,20.85C166.957,19.08 162.747,14.84 162.602,14.837C162.455,14.833 161.691,14.194 160.083,12.73C157.266,10.164 154.825,9.573 151.905,10.75C151.109,11.071 150.322,11.333 150.155,11.333C148.664,11.333 145.828,15.336 144.665,19.083C144.466,19.725 144.204,20.475 144.082,20.75C143.96,21.025 143.705,21.85 143.515,22.583C143.325,23.317 142.976,24.554 142.739,25.333C142.501,26.113 142.129,27.688 141.91,28.833C141.692,29.979 141.405,31.406 141.273,32.004C141.141,32.602 140.951,33.802 140.849,34.67C140.748,35.539 140.518,37.525 140.337,39.083C139.543,45.929 139.84,56.722 140.911,59.917C141.126,60.558 141.335,61.424 141.376,61.84C141.538,63.474 142.976,65.374 144.2,65.569C144.589,65.632 145.022,65.781 145.162,65.902C145.598,66.278 146.309,66.36 146.881,66.099C147.176,65.964 147.701,65.74 148.048,65.599C150.042,64.796 154.731,59.157 155.54,56.591C156.855,52.422 154.734,42.495 151.689,38.565C150.774,37.384 150.047,36.355 149.836,35.943C149.415,35.119 147.901,33.672 147.343,33.56C146.544,33.401 146.545,32.961 147.356,28.333C147.813,25.72 150.057,19.616 150.904,18.68C152.011,17.458 154.96,17.009 157.124,17.733C158.164,18.082 161.554,21.078 162.248,22.261C162.478,22.655 162.765,23.075 162.885,23.197C163.136,23.45 164.833,25.946 164.833,26.062C164.833,26.182 166.342,28.719 166.581,29C166.946,29.43 168.522,32.533 168.951,33.667C169.177,34.262 169.417,34.825 169.485,34.917C169.552,35.008 169.873,35.758 170.197,36.583C170.522,37.408 171.029,38.683 171.325,39.417C172.008,41.112 173.532,45.42 173.948,46.83L174.267,47.91L172.65,49.497C169.286,52.798 166.475,57.089 165.277,60.75C161.114,73.467 160.82,80.255 164.114,87.583C165.56,90.8 165.878,91.426 166.644,92.573C167.069,93.208 167.683,94.146 168.009,94.656C168.334,95.166 169.084,96.196 169.675,96.946C170.266,97.695 171.012,98.67 171.333,99.112C171.653,99.555 172.578,100.58 173.387,101.39C174.197,102.2 174.834,102.881 174.804,102.902C174.775,102.923 173.74,103.608 172.506,104.424C167.35,107.832 163.586,111.876 161.381,116.375L160.259,118.667L159.504,118.67C158.112,118.676 154.498,119.3 152.167,119.937C150.974,120.262 148.974,121.044 147.026,121.946C146.17,122.342 145.392,122.667 145.297,122.667C144.931,122.667 142.229,124.457 141.326,125.297C137.316,129.028 137.063,133.149 140.597,137.158C142.187,138.962 142.543,139.317 143.209,139.766C143.598,140.028 144.217,140.523 144.583,140.867C145.875,142.078 148.598,144.012 149.869,144.621L151.155,145.237L150.744,145.744C150.519,146.022 150.177,146.587 149.985,147C149.792,147.412 149.457,148.125 149.24,148.583C147.219,152.845 149.685,159.509 153.626,160.436C158.447,161.571 163.32,159.781 166.083,155.863C167.094,154.429 166.974,154.439 167.886,155.708C168.788,156.962 171.503,159.723 172.381,160.279C172.728,160.499 173.291,160.929 173.631,161.234C174.291,161.826 175.613,162.703 177.009,163.474C177.479,163.734 177.855,163.995 177.846,164.054C177.825,164.194 175.908,165.94 175.098,166.559C172.414,168.608 169.14,174.77 168.487,179C167.904,182.771 168.632,185.227 171.712,189.882L172.507,191.083L171.962,191.222C167.398,192.38 165.699,194 165.676,197.217C165.66,199.457 166.336,200.151 170.563,202.239C173.893,203.884 174.374,204.019 178.603,204.507C187.129,205.49 193.249,203.986 194.235,200.665C194.367,200.222 194.549,199.72 194.641,199.549C194.732,199.377 194.887,198.52 194.985,197.642L195.163,196.047L194.593,194.732C193.063,191.202 189.172,189.126 183.617,188.875L181.651,188.787L180.663,187.676C178.772,185.548 176.723,180.844 176.667,178.5C176.596,175.533 178.799,170.938 181.657,168.093L183.089,166.668L184.581,167.254C186.85,168.144 190.092,169.167 190.649,169.167C190.922,169.167 191.339,169.24 191.576,169.331C192.311,169.61 196.854,170.485 198.083,170.584C205.693,171.196 210.992,170.891 216.045,169.55C216.94,169.312 217.696,169.147 217.724,169.184C217.752,169.22 218.139,169.737 218.585,170.333C219.031,170.929 219.612,171.669 219.876,171.978C220.457,172.655 220.585,172.936 221.677,175.917C223.11,179.831 223.235,182.992 222.138,187.573C221.329,190.95 220.796,192.353 220.171,192.75C216.305,195.205 215.612,198.467 218.485,200.686C221.642,203.123 224.44,203.908 230.711,204.115C236.146,204.294 239.504,203.497 242.953,201.211C246.121,199.111 245.596,194.413 242.022,192.884C241.689,192.741 241.229,192.529 241,192.414C239.52,191.665 233.502,190.31 230.137,189.967L228.19,189.768L228.479,189.343C230.844,185.857 230.658,178.171 228.107,173.944C227.452,172.858 226.617,171.467 226.25,170.852C225.482,169.565 224.288,167.798 223.721,167.111C223.242,166.531 223.321,166.383 224.235,166.153C224.963,165.97 226.138,165.278 228.656,163.549C230.961,161.966 235.134,157.63 236.627,155.264C236.854,154.904 237.19,154.454 237.373,154.263C238.632,152.953 240.86,147.383 241.411,144.167C243.006,134.859 242.828,131.45 240.466,126.083C240.103,125.258 239.763,124.48 239.711,124.355C239.633,124.169 239.847,124.141 240.849,124.205C242.512,124.312 244.738,123.97 246.934,123.269C247.933,122.951 249.162,122.574 249.667,122.432C253.548,121.341 259.445,114.319 261.922,107.841C262.291,106.874 263.041,105.098 263.587,103.894L264.58,101.704L265.915,101.632C268.41,101.497 271.987,99.321 273.442,97.053C273.747,96.578 274.073,96.141 274.167,96.083C275.018,95.557 275.597,92.117 275.26,89.583C275.049,87.997 275.054,87.9 275.363,87.562C276.975,85.797 275.647,81.833 273.443,81.833C273.287,81.833 273.094,81.663 273.015,81.456C272.218,79.36 270.249,78.362 268.701,79.27L267.956,79.706L267.547,79.183C266.553,77.914 264.102,77.955 263.375,79.252C263.237,79.5 261.833,75.885 261.833,75.282C261.833,75.15 261.468,74.189 261.022,73.146C260.576,72.103 260.159,71.083 260.096,70.88C259.919,70.311 258.683,69.333 258.141,69.333C257.328,69.333 256.726,71.138 256.918,73C257.315,76.86 257.543,79.497 257.671,81.737L257.822,84.391L257.18,85.088C254.667,87.814 255.294,95.02 258.256,97.461L258.847,97.948L258.365,99.016C258.1,99.603 257.786,100.346 257.666,100.667C257.546,100.987 257.122,102.011 256.724,102.94C256.326,103.87 256,104.721 256,104.831C256,105.067 254.315,107.688 253.826,108.213C253.642,108.411 253.277,108.95 253.017,109.411C252.525,110.281 251.579,111.359 250.398,112.396L249.713,112.997L247.815,112.757C240.877,111.879 235.884,112.098 233.385,113.39L232.882,113.65L232.094,112.737C231.66,112.234 230.918,111.523 230.444,111.155C229.971,110.788 228.96,109.973 228.199,109.345C226.444,107.895 223.088,106.236 219.61,105.099C219.325,105.006 220.248,103.829 222.167,101.842C222.304,101.699 222.821,101.039 223.315,100.375C223.808,99.71 224.271,99.167 224.343,99.167C224.582,99.167 227.668,94.065 228.73,91.917C232.374,84.545 232.861,75.681 229.999,68.831C228.58,65.435 224.329,58.5 223.666,58.5C223.587,58.5 223.471,58.331 223.409,58.125C223.214,57.483 221.347,55.769 219,54.079C218.496,53.715 217.187,52.727 216.091,51.881C214.996,51.036 213.796,50.195 213.425,50.014C213.054,49.832 211.963,49.311 211,48.856C205.267,46.148 205.499,46.291 205.824,45.683C205.911,45.521 206.096,44.68 206.235,43.815C206.375,42.949 206.609,41.905 206.756,41.495C207.274,40.054 208.833,34.432 208.833,34.01C208.832,33.58 209.884,30.72 210.951,28.25C211.268,27.517 211.624,26.579 211.742,26.167C212.099,24.922 212.728,23.658 213.723,22.191C214.242,21.425 214.667,20.735 214.667,20.657C214.667,20.58 214.774,20.457 214.905,20.383C215.035,20.31 215.767,19.65 216.53,18.916C218.519,17.003 219.498,16.385 220.888,16.168C221.514,16.07 222.319,15.889 222.677,15.765L223.328,15.541L224.872,16.577C225.722,17.147 227.017,18.197 227.75,18.91C228.483,19.624 229.408,20.517 229.804,20.895C230.858,21.901 232.5,24.099 232.5,24.503C232.5,24.603 232.982,25.584 233.572,26.682C234.909,29.176 234.993,29.509 234.457,30.215C233.858,31.006 232.5,33.648 232.5,34.024C232.5,34.203 232.397,34.552 232.27,34.8C232.144,35.047 231.887,35.85 231.7,36.583C231.513,37.317 231.162,38.629 230.92,39.5C229.809,43.505 230.149,46.947 232.215,52.583C232.35,52.95 232.552,53.55 232.664,53.917C232.777,54.283 233.069,54.846 233.314,55.167C233.559,55.487 233.844,55.938 233.947,56.167C234.251,56.84 235.732,58.479 236.693,59.207C241.314,62.706 246.942,61.457 249.454,56.375L250.073,55.121L250.049,52.332C250.024,49.364 249.902,48.456 249.15,45.638C248.562,43.435 248.085,42.045 247.473,40.75C247.213,40.2 247,39.648 247,39.524C247,39.025 244.036,33.163 243.154,31.917C242.3,30.71 241.167,28.48 241.167,28.006C241.167,27.794 241.106,27.668 239.174,23.833C236.722,18.97 233.13,14.53 230.274,12.833C229.888,12.604 229.307,12.212 228.983,11.962C227.179,10.569 222.099,9.293 220.25,9.769M194.429,49.343C198.201,49.708 204.932,52.118 207.939,54.18C212.408,57.245 220.001,64.57 221.804,67.556C223.782,70.83 224.907,74.542 225.488,79.708C226.081,84.982 222.463,94.94 218.982,97.616C218.409,98.056 217.477,98.806 216.911,99.282C213.294,102.321 210.873,103.494 204.25,105.411C193.691,108.469 183.658,104.652 176.222,94.75C171.723,88.757 170.558,86.413 169.681,81.583C169.481,80.483 169.204,78.96 169.065,78.198C167.816,71.355 171.241,58.654 175.527,54.233C178.796,50.862 187.325,48.655 194.429,49.343M183.238,62.636C178.9,64.136 176.595,73.255 178.872,79.917C180.06,83.395 182.209,85.695 184.04,85.449C187.632,84.967 190.087,81.298 191.087,74.916C192.17,68.012 187.74,61.08 183.238,62.636M204.872,62.909C199.509,65.48 197.793,71.495 199.855,80.5C200.999,85.499 203.652,87.665 206.455,85.891C211.41,82.756 213.446,77.545 212.522,70.368C211.766,64.503 208.399,61.219 204.872,62.909M184.083,90.092C182.644,90.829 182.79,91.329 185.127,93.642C186.205,94.71 187.536,96.183 188.085,96.917C190.198,99.739 191.266,100.431 193.447,100.392C195.984,100.347 197.203,99.506 198.621,96.824C199.412,95.329 199.651,95.004 199.962,95.002C201.452,94.994 202.649,93.106 201.987,91.807C201.368,90.594 200.417,90.414 196.777,90.818C194.125,91.113 188.094,90.638 186.423,90.003C185.773,89.755 184.657,89.798 184.083,90.092M180.388,105.903C183.083,107.569 187.886,109.833 188.724,109.833C189.29,109.833 189.099,110.156 187.985,111.084C184.236,114.207 180.99,118.4 177.792,124.25C175.496,128.451 172.72,136.207 171.261,142.5C170.931,143.921 170.454,145.983 170.201,147.083C169.667,149.398 169.238,149.797 168.546,148.624C167.286,146.488 165.653,142.16 164.537,138L163.755,135.083L163.755,130C163.755,124.367 163.762,124.312 165.095,120.08C165.864,117.638 165.936,117.539 166.662,117.914C169.043,119.146 170.809,119.136 173.212,117.878C176.568,116.123 179.118,110.576 178.508,106.361C178.239,104.508 178.162,104.527 180.388,105.903M218.917,109.492C223.653,111.855 228.199,115.529 230.997,119.256C231.407,119.803 232.06,120.611 232.448,121.052C234.53,123.42 237.495,128.667 236.752,128.667C235.994,128.667 233.156,131.249 232.37,132.656C229.825,137.206 229.946,141.585 232.747,146.299C233.888,148.22 233.831,148.586 231.931,151.552C231.083,152.875 230.952,152.75 230.723,150.403C229.465,137.484 222.059,122.115 212.067,111.686C210.998,110.569 210.151,109.631 210.186,109.6C210.221,109.57 211.188,109.234 212.333,108.853C213.479,108.473 214.529,108.086 214.667,107.993C215.104,107.698 215.843,107.959 218.917,109.492M205.317,111.868C208.125,113.575 213.629,120.28 216.719,125.759C218.326,128.606 220.946,135.11 220.618,135.437C220.234,135.821 212.898,137.846 210.167,138.322C204.855,139.248 195.132,139.618 191.583,139.029C183.063,137.614 179.058,136.197 179.251,134.667C179.821,130.144 188.025,116.484 192.808,112.095L193.978,111.022L197.281,111.005C199.097,110.995 201.108,110.931 201.75,110.862C202.99,110.729 203.833,110.967 205.317,111.868M159.315,133.833C159.471,136.251 159.792,138.114 160.407,140.187C160.782,141.448 160.786,141.441 159.542,141.661C158.923,141.77 158.204,141.927 157.944,142.009C157.467,142.161 156.464,141.794 155.825,141.235C155.682,141.11 155.034,140.725 154.384,140.379C150.653,138.395 146.113,134.333 145.207,132.171C144.878,131.387 145.237,130.726 146.511,129.768C148.161,128.528 152.959,126.972 157.75,126.123L158.917,125.917L159.032,128.583C159.095,130.05 159.223,132.412 159.315,133.833M182.25,140.899C193.048,144.021 207.213,143.959 219.234,140.735C222.5,139.86 222.217,139.738 222.492,142.14C222.604,143.117 222.95,145.792 223.261,148.083C224.119,154.405 224.335,158.477 223.896,160.033C223.757,160.525 220.025,161.818 216.583,162.566C206.706,164.711 202.709,164.807 192.25,163.151C189.958,162.787 187.783,162.414 187.417,162.32C185.227,161.762 180.798,160.108 178.75,159.084L176.417,157.917L176.137,156.167C175.669,153.232 175.947,148.008 176.816,143.417C176.903,142.958 177.059,141.958 177.164,141.193C177.268,140.428 177.421,139.625 177.503,139.408L177.653,139.015L179.201,139.74C180.053,140.139 181.425,140.661 182.25,140.899" style="fill:rgb(4,4,4);"/>
            <path id="path3" d="M174.906,54.875L174.417,55.417L174.958,54.927C175.256,54.658 175.5,54.414 175.5,54.385C175.5,54.257 175.362,54.37 174.906,54.875M216.083,61.167C216.628,61.717 217.11,62.167 217.156,62.167C217.202,62.167 216.794,61.717 216.25,61.167C215.706,60.617 215.223,60.167 215.177,60.167C215.131,60.167 215.539,60.617 216.083,61.167M218,63.219C218,63.248 218.244,63.491 218.542,63.76L219.083,64.25L218.594,63.708C218.138,63.203 218,63.09 218,63.219M201.744,65.208L200.917,66.083L201.792,65.256C202.273,64.801 202.667,64.408 202.667,64.381C202.667,64.257 202.512,64.395 201.744,65.208M199.039,71.5C199.039,71.821 199.073,71.952 199.115,71.792C199.157,71.631 199.157,71.369 199.115,71.208C199.073,71.048 199.039,71.179 199.039,71.5M177.894,74.25C177.895,75.167 177.923,75.52 177.956,75.036C177.99,74.552 177.99,73.802 177.956,73.369C177.921,72.937 177.894,73.333 177.894,74.25M198.892,74.083C198.892,74.908 198.92,75.267 198.955,74.88C198.99,74.493 198.99,73.818 198.956,73.38C198.922,72.942 198.893,73.258 198.892,74.083M168.705,73.667C168.705,73.987 168.74,74.119 168.782,73.958C168.823,73.798 168.823,73.535 168.782,73.375C168.74,73.215 168.705,73.346 168.705,73.667M212.56,75.5C212.56,76.371 212.588,76.727 212.623,76.292C212.657,75.856 212.657,75.144 212.623,74.708C212.588,74.273 212.56,74.629 212.56,75.5M225.539,81.167C225.539,81.487 225.573,81.619 225.615,81.458C225.657,81.298 225.657,81.035 225.615,80.875C225.573,80.715 225.539,80.846 225.539,81.167M193.958,90.955C194.348,90.99 194.985,90.99 195.375,90.955C195.765,90.92 195.446,90.892 194.667,90.892C193.887,90.892 193.569,90.92 193.958,90.955M178.539,106.5C178.539,106.821 178.573,106.952 178.615,106.792C178.657,106.631 178.657,106.369 178.615,106.208C178.573,106.048 178.539,106.179 178.539,106.5M196.128,106.454C196.428,106.491 196.878,106.49 197.128,106.452C197.378,106.414 197.133,106.384 196.583,106.385C196.033,106.386 195.828,106.417 196.128,106.454M198.208,106.453C198.46,106.491 198.873,106.491 199.125,106.453C199.377,106.415 199.171,106.383 198.667,106.383C198.162,106.383 197.956,106.415 198.208,106.453M178.539,109.167C178.539,109.487 178.573,109.619 178.615,109.458C178.657,109.298 178.657,109.035 178.615,108.875C178.573,108.715 178.539,108.846 178.539,109.167M210.167,109.629C210.167,109.699 210.823,110.393 211.625,111.17L213.083,112.583L211.703,111.158C210.944,110.374 210.375,109.68 210.439,109.616C210.503,109.552 210.468,109.5 210.361,109.5C210.254,109.5 210.167,109.558 210.167,109.629M195.288,111.12C195.584,111.157 196.109,111.158 196.455,111.122C196.8,111.086 196.558,111.055 195.917,111.055C195.275,111.054 194.992,111.083 195.288,111.12M185.579,113.208L184.417,114.417L185.625,113.254C186.747,112.175 186.909,112 186.787,112C186.762,112 186.218,112.544 185.579,113.208M206.667,113.083C206.978,113.404 207.27,113.667 207.315,113.667C207.361,113.667 207.144,113.404 206.833,113.083C206.522,112.763 206.23,112.5 206.185,112.5C206.139,112.5 206.356,112.763 206.667,113.083M213.167,112.885C213.167,112.914 213.41,113.158 213.708,113.427L214.25,113.917L213.76,113.375C213.304,112.87 213.167,112.757 213.167,112.885M226.333,114.385C226.333,114.414 226.577,114.658 226.875,114.927L227.417,115.417L226.927,114.875C226.471,114.37 226.333,114.257 226.333,114.385M183.667,115.25C183.262,115.662 182.968,116 183.014,116C183.06,116 183.428,115.662 183.833,115.25C184.238,114.837 184.532,114.5 184.486,114.5C184.44,114.5 184.072,114.837 183.667,115.25M174.991,116.625L174.417,117.25L175.042,116.676C175.623,116.141 175.743,116 175.616,116C175.588,116 175.307,116.281 174.991,116.625M229.167,117.25C229.478,117.571 229.77,117.833 229.815,117.833C229.861,117.833 229.644,117.571 229.333,117.25C229.022,116.929 228.73,116.667 228.685,116.667C228.639,116.667 228.856,116.929 229.167,117.25M231.833,120.552C231.833,120.581 232.077,120.825 232.375,121.094L232.917,121.583L232.427,121.042C231.971,120.537 231.833,120.423 231.833,120.552M163.72,127C163.72,127.596 163.75,127.84 163.787,127.542C163.824,127.244 163.824,126.756 163.787,126.458C163.75,126.16 163.72,126.404 163.72,127M234.406,130.208L233.917,130.75L234.458,130.26C234.963,129.804 235.077,129.667 234.948,129.667C234.919,129.667 234.675,129.91 234.406,130.208M163.705,133.667C163.705,133.987 163.74,134.119 163.782,133.958C163.823,133.798 163.823,133.535 163.782,133.375C163.74,133.215 163.705,133.346 163.705,133.667M230.75,136.333C230.687,136.621 230.67,136.892 230.712,136.934C230.755,136.977 230.837,136.772 230.896,136.479C231.035,135.784 230.9,135.65 230.75,136.333M230.545,138C230.545,138.412 230.578,138.581 230.618,138.375C230.657,138.169 230.657,137.831 230.618,137.625C230.578,137.419 230.545,137.587 230.545,138M205.208,138.948C205.369,138.99 205.631,138.99 205.792,138.948C205.952,138.906 205.821,138.872 205.5,138.872C205.179,138.872 205.048,138.906 205.208,138.948M192.375,139.115C192.535,139.157 192.798,139.157 192.958,139.115C193.119,139.073 192.987,139.039 192.667,139.039C192.346,139.039 192.215,139.073 192.375,139.115M203.46,139.118C203.668,139.158 203.968,139.156 204.127,139.115C204.286,139.073 204.117,139.04 203.75,139.042C203.383,139.044 203.253,139.078 203.46,139.118M194.375,139.286C194.627,139.324 195.04,139.324 195.292,139.286C195.544,139.248 195.338,139.217 194.833,139.217C194.329,139.217 194.123,139.248 194.375,139.286M200.208,139.288C200.552,139.324 201.115,139.324 201.458,139.288C201.802,139.252 201.521,139.223 200.833,139.223C200.146,139.223 199.865,139.252 200.208,139.288M230.372,139.833C230.372,140.154 230.406,140.285 230.448,140.125C230.49,139.965 230.49,139.702 230.448,139.542C230.406,139.381 230.372,139.512 230.372,139.833M230.687,142C230.684,142.137 230.785,142.475 230.911,142.75C231.205,143.394 231.21,143.094 230.917,142.333C230.793,142.012 230.69,141.862 230.687,142M222.539,143.333C222.539,143.654 222.573,143.785 222.615,143.625C222.657,143.465 222.657,143.202 222.615,143.042C222.573,142.881 222.539,143.012 222.539,143.333M197.042,143.282C197.202,143.323 197.465,143.323 197.625,143.282C197.785,143.24 197.654,143.205 197.333,143.205C197.012,143.205 196.881,143.24 197.042,143.282M199.875,143.282C200.035,143.323 200.298,143.323 200.458,143.282C200.619,143.24 200.487,143.205 200.167,143.205C199.846,143.205 199.715,143.24 199.875,143.282M230.718,149.583C230.719,150.133 230.75,150.338 230.787,150.039C230.825,149.739 230.824,149.289 230.786,149.039C230.748,148.788 230.717,149.033 230.718,149.583M230.893,151.82C230.908,152.172 231.013,152.417 231.167,152.458C231.335,152.504 231.354,152.48 231.223,152.387C231.117,152.311 230.994,152.024 230.95,151.749C230.876,151.292 230.872,151.298 230.893,151.82M224.039,156.333C224.039,156.654 224.073,156.785 224.115,156.625C224.157,156.465 224.157,156.202 224.115,156.042C224.073,155.881 224.039,156.012 224.039,156.333M202.958,164.29C203.531,164.323 204.469,164.323 205.042,164.29C205.615,164.258 205.146,164.231 204,164.231C202.854,164.231 202.385,164.258 202.958,164.29" style="fill:rgb(91,53,48);"/>
            <path id="path4" d="M190.214,49.29C190.745,49.323 191.57,49.323 192.048,49.289C192.526,49.256 192.092,49.229 191.083,49.229C190.075,49.229 189.684,49.257 190.214,49.29M214.667,59.917C215.165,60.421 215.609,60.833 215.655,60.833C215.701,60.833 215.331,60.421 214.833,59.917C214.335,59.413 213.891,59 213.845,59C213.799,59 214.169,59.413 214.667,59.917M217,62.25C217.498,62.754 217.943,63.167 217.989,63.167C218.034,63.167 217.665,62.754 217.167,62.25C216.669,61.746 216.224,61.333 216.178,61.333C216.132,61.333 216.502,61.746 217,62.25M184.46,62.285C184.668,62.324 184.968,62.323 185.127,62.281C185.286,62.239 185.117,62.207 184.75,62.209C184.383,62.211 184.253,62.245 184.46,62.285M206.292,62.284C206.498,62.324 206.835,62.324 207.042,62.284C207.248,62.245 207.079,62.212 206.667,62.212C206.254,62.212 206.085,62.245 206.292,62.284M186.167,62.546C186.167,62.578 186.41,62.782 186.708,63.001C187.044,63.246 187.16,63.286 187.014,63.106C186.792,62.833 186.167,62.42 186.167,62.546M219.25,64.667C219.608,65.033 219.938,65.333 219.984,65.333C220.03,65.333 219.775,65.033 219.417,64.667C219.059,64.3 218.728,64 218.682,64C218.637,64 218.892,64.3 219.25,64.667M212.705,71.333C212.705,71.654 212.74,71.785 212.782,71.625C212.823,71.465 212.823,71.202 212.782,71.042C212.74,70.881 212.705,71.012 212.705,71.333M177.875,72.083C177.877,72.45 177.911,72.58 177.951,72.373C177.991,72.166 177.99,71.866 177.948,71.706C177.906,71.547 177.874,71.717 177.875,72.083M168.872,72.333C168.872,72.654 168.906,72.785 168.948,72.625C168.99,72.465 168.99,72.202 168.948,72.042C168.906,71.881 168.872,72.012 168.872,72.333M212.712,73.167C212.712,73.579 212.745,73.748 212.784,73.542C212.824,73.335 212.824,72.998 212.784,72.792C212.745,72.585 212.712,72.754 212.712,73.167M168.709,74.75C168.711,75.117 168.745,75.247 168.785,75.04C168.824,74.832 168.823,74.532 168.781,74.373C168.739,74.214 168.707,74.383 168.709,74.75M225.372,82.167C225.372,82.487 225.406,82.619 225.448,82.458C225.49,82.298 225.49,82.035 225.448,81.875C225.406,81.715 225.372,81.846 225.372,82.167M209.282,83.708C208.763,84.222 208.761,84.229 209.242,83.835C209.522,83.606 209.821,83.362 209.908,83.293C209.995,83.223 210.013,83.167 209.948,83.167C209.882,83.167 209.582,83.41 209.282,83.708M203.96,86.618C204.168,86.658 204.468,86.656 204.627,86.615C204.786,86.573 204.617,86.54 204.25,86.542C203.883,86.544 203.753,86.578 203.96,86.618M184,92.75C184.311,93.071 184.603,93.333 184.649,93.333C184.695,93.333 184.478,93.071 184.167,92.75C183.856,92.429 183.564,92.167 183.518,92.167C183.472,92.167 183.689,92.429 184,92.75M222.283,92.752C222.13,93.072 222.04,93.333 222.082,93.333C222.196,93.333 222.702,92.313 222.625,92.237C222.589,92.2 222.435,92.432 222.283,92.752M186.333,95.083C186.831,95.587 187.276,96 187.322,96C187.368,96 186.998,95.587 186.5,95.083C186.002,94.579 185.557,94.167 185.511,94.167C185.466,94.167 185.835,94.579 186.333,95.083M200.167,94.953C199.556,95.063 199.401,95.29 199.997,95.203C200.276,95.162 200.545,95.062 200.595,94.981C200.645,94.9 200.663,94.844 200.635,94.856C200.607,94.869 200.396,94.912 200.167,94.953M192.628,100.621C192.928,100.658 193.378,100.657 193.628,100.619C193.878,100.581 193.633,100.551 193.083,100.552C192.533,100.553 192.328,100.584 192.628,100.621M194.542,106.286C194.794,106.324 195.206,106.324 195.458,106.286C195.71,106.248 195.504,106.217 195,106.217C194.496,106.217 194.29,106.248 194.542,106.286M199.46,106.285C199.668,106.324 199.968,106.323 200.127,106.281C200.286,106.239 200.117,106.207 199.75,106.209C199.383,106.211 199.253,106.245 199.46,106.285M198.792,111.118C198.998,111.157 199.335,111.157 199.542,111.118C199.748,111.078 199.579,111.045 199.167,111.045C198.754,111.045 198.585,111.078 198.792,111.118M192.828,112.125L191.917,113.083L192.875,112.172C193.765,111.326 193.91,111.167 193.786,111.167C193.76,111.167 193.329,111.598 192.828,112.125M208.75,115.167C209.571,115.992 210.281,116.667 210.326,116.667C210.372,116.667 209.738,115.992 208.917,115.167C208.095,114.342 207.386,113.667 207.34,113.667C207.294,113.667 207.929,114.342 208.75,115.167M202.375,139.115C202.535,139.157 202.798,139.157 202.958,139.115C203.119,139.073 202.987,139.039 202.667,139.039C202.346,139.039 202.215,139.073 202.375,139.115M196.625,139.29C197.198,139.323 198.135,139.323 198.708,139.29C199.281,139.258 198.813,139.231 197.667,139.231C196.521,139.231 196.052,139.258 196.625,139.29M222.372,142.5C222.372,142.821 222.406,142.952 222.448,142.792C222.49,142.631 222.49,142.369 222.448,142.208C222.406,142.048 222.372,142.179 222.372,142.5M204.46,143.118C204.668,143.158 204.968,143.156 205.127,143.115C205.286,143.073 205.117,143.04 204.75,143.042C204.383,143.044 204.253,143.078 204.46,143.118M195.711,143.286C195.964,143.325 196.339,143.324 196.544,143.284C196.749,143.244 196.542,143.213 196.083,143.214C195.625,143.216 195.457,143.248 195.711,143.286M201.128,143.287C201.428,143.325 201.878,143.324 202.128,143.286C202.378,143.248 202.133,143.217 201.583,143.218C201.033,143.219 200.828,143.25 201.128,143.287M175.894,152.583C175.895,153.5 175.923,153.854 175.956,153.369C175.99,152.885 175.99,152.135 175.956,151.703C175.921,151.27 175.894,151.667 175.894,152.583M223.872,154.167C223.872,154.487 223.906,154.619 223.948,154.458C223.99,154.298 223.99,154.035 223.948,153.875C223.906,153.715 223.872,153.846 223.872,154.167M197.794,163.951C198.001,163.991 198.301,163.99 198.46,163.948C198.62,163.906 198.45,163.874 198.083,163.875C197.717,163.877 197.586,163.911 197.794,163.951M200.294,164.118C200.501,164.158 200.801,164.156 200.96,164.115C201.12,164.073 200.95,164.04 200.583,164.042C200.217,164.044 200.086,164.078 200.294,164.118M206.96,164.118C207.168,164.158 207.468,164.156 207.627,164.115C207.786,164.073 207.617,164.04 207.25,164.042C206.883,164.044 206.753,164.078 206.96,164.118" style="fill:rgb(122,108,97);"/>
        </g>
    </g>
</svg>
