<?xml version="1.0" encoding="UTF-8"?>
<svg width="768px" height="1024px" viewBox="0 0 768 1024" version="1.1" xmlns="http://www.w3.org/2000/svg" xmlns:xlink="http://www.w3.org/1999/xlink">
    <!-- Generator: Sketch 51.2 (57519) - http://www.bohemiancoding.com/sketch -->
    <title>SpaghettiChallenge</title>
    <desc>Created with Sketch.</desc>
    <defs></defs>
    <g id="SpaghettiChallenge" stroke="none" stroke-width="1" fill="none" fill-rule="evenodd">
        <rect fill="#FFFFFF" x="0" y="0" width="768" height="1024"></rect>
        <g id="TableCloth" transform="translate(47.000000, 151.000000)" fill="#FFFFFF" stroke="#000000">
            <rect id="Rectangle-4" x="0.5" y="87.5" width="676" height="631"></rect>
            <g id="Sides" transform="translate(0.000000, 721.000000)">
                <path d="M0.5,0.5 L0.5,66.6139702 C22.3601948,79.2063727 44.8577525,85.5 68,85.5 C91.1422475,85.5 113.639805,79.2063727 135.5,66.6139702 L135.5,0.5 L0.5,0.5 Z" id="Rectangle-2"></path>
                <path d="M136.5,0.5 L136.5,66.6139702 C158.360195,79.2063727 180.857752,85.5 204,85.5 C227.142248,85.5 249.639805,79.2063727 271.5,66.6139702 L271.5,0.5 L136.5,0.5 Z" id="Rectangle-2-Copy"></path>
                <path d="M272.5,0.5 L272.5,66.6139702 C294.360195,79.2063727 316.857752,85.5 340,85.5 C363.142248,85.5 385.639805,79.2063727 407.5,66.6139702 L407.5,0.5 L272.5,0.5 Z" id="Rectangle-2-Copy-2"></path>
                <path d="M407.5,0.5 L407.5,66.6139702 C429.360195,79.2063727 451.857752,85.5 475,85.5 C498.142248,85.5 520.639805,79.2063727 542.5,66.6139702 L542.5,0.5 L407.5,0.5 Z" id="Rectangle-2-Copy-3"></path>
                <path d="M541.5,0.5 L541.5,69.7323302 C563.361145,82.9128215 585.858498,89.5 609,89.5 C632.141502,89.5 654.638855,82.9128215 676.5,69.7323302 L676.5,0.5 L541.5,0.5 Z" id="Rectangle-2-Copy-4"></path>
            </g>
            <g id="Sides_2" transform="translate(338.500000, 43.500000) scale(1, -1) translate(-338.500000, -43.500000) ">
                <path d="M0.5,1.5 L0.5,67.6139702 C22.3601948,80.2063727 44.8577525,86.5 68,86.5 C91.1422475,86.5 113.639805,80.2063727 135.5,67.6139702 L135.5,1.5 L0.5,1.5 Z" id="Rectangle-2"></path>
                <path d="M136.5,1.5 L136.5,67.6139702 C158.360195,80.2063727 180.857752,86.5 204,86.5 C227.142248,86.5 249.639805,80.2063727 271.5,67.6139702 L271.5,1.5 L136.5,1.5 Z" id="Rectangle-2-Copy"></path>
                <path d="M272.5,1.5 L272.5,67.6139702 C294.360195,80.2063727 316.857752,86.5 340,86.5 C363.142248,86.5 385.639805,80.2063727 407.5,67.6139702 L407.5,1.5 L272.5,1.5 Z" id="Rectangle-2-Copy-2"></path>
                <path d="M407.5,1.5 L407.5,67.6139702 C429.360195,80.2063727 451.857752,86.5 475,86.5 C498.142248,86.5 520.639805,80.2063727 542.5,67.6139702 L542.5,1.5 L407.5,1.5 Z" id="Rectangle-2-Copy-3"></path>
                <path d="M541.5,0.5 L541.5,66.6139702 C563.360195,79.2063727 585.857752,85.5 609,85.5 C632.142248,85.5 654.639805,79.2063727 676.5,66.6139702 L676.5,0.5 L541.5,0.5 Z" id="Rectangle-2-Copy-4"></path>
            </g>
        </g>
        <g id="Plate" transform="translate(86.000000, 256.000000)" stroke="#000000">
            <circle id="Oval-2" fill="#FFFFFF" cx="299" cy="299" r="299"></circle>
            <circle id="Oval-3" fill="#FFFFFF" cx="299" cy="299" r="195"></circle>
            <g id="CoiledSpaghetti" transform="translate(140.000000, 150.000000)">
                <path d="M157,306.895074 L157,201.622513 C192.087178,153.109964 221.947266,126.90246 246.580264,123 C271.213261,119.09754 290.265117,137.556215 303.735832,178.376024 C298.45632,206.591916 291.807916,225.07729 283.79062,233.832145 C275.773323,242.587 263.369871,244.906177 246.580264,240.789674 C229.854959,216.907246 219.732227,193.996505 216.212069,172.057452 C212.691911,150.118398 212.691911,133.765914 216.212069,123 C203.490904,124.434938 195.080931,134.720291 190.982152,153.856059 C186.883373,172.991827 186.883373,201.969699 190.982152,240.789674 C182.303037,263.639158 168.954462,275.86808 150.936426,277.476441 C132.91839,279.084802 100.170377,270.970643 52.6923886,253.133964 L83.3445636,147.315627 C117.950981,153.411626 136.643424,168.038403 139.421893,191.195957 C142.200361,214.353511 129.89009,252.919883 102.49108,306.895074 C94.6186956,249.132572 94.6186956,201.215254 102.49108,163.143118 C107.529116,138.778356 94.9865388,110.568596 108.459114,84.6623681 C113.512138,74.9459769 129.692434,61.1522023 157,43.2810444 C127.078421,20.64541 102.526609,9.3275928 83.3445636,9.3275928 C64.1625183,9.3275928 43.7795022,20.64541 22.1955155,43.2810444 C37.7292095,45.3705258 44.3613439,54.023065 42.0919187,69.2386622 C39.8224935,84.4542593 28.0180634,110.479914 6.67862844,147.315627 C-1.90110961,119.732058 -1.90110961,101.598702 6.67862844,92.9155594 C15.2583665,84.2324169 33.1757786,84.2324169 60.4308647,92.9155594 C83.6970788,51.9967719 117.16417,29.349305 160.83214,24.9731587 C204.500109,20.5970124 249.787395,35.3521802 296.693996,69.2386622 C302.880251,95.3619732 305.22753,113.282419 303.735832,123 C302.244134,132.717581 295.59573,142.816572 283.79062,153.296972 C247.457975,130.219226 224.931792,110.092088 216.212069,92.9155594 C207.492347,75.7390306 204.216214,45.0395254 206.383672,0.817043909 L160.83214,141.980334 L157,153.856059 C141.251167,190.638731 123.081527,212.453484 102.49108,219.300316 C81.9006335,226.147149 52.1876657,220.254548 13.3521767,201.622513 C12.3910713,171.598116 17.430251,151.71739 28.4697158,141.980334 C39.5091806,132.243279 64.1829687,125.9165 102.49108,123 C133.966475,119.762231 150.114924,109.734084 150.936426,92.9155594 C151.757927,76.0970352 137.598823,45.39753 108.459114,0.817043909 C147.255508,13.2531925 174.763188,41.2016339 190.982152,84.6623681 C200.843701,111.087615 175.48646,164.962234 179.574112,209.751463 C181.330895,229.000892 193.543548,255.601903 216.212069,289.554498 L230.236426,191.195957 C241.170698,216.778011 249.070937,212.5047 253.937141,178.376024 C258.803344,144.247349 258.803344,93.1130601 253.937141,24.9731587 C283.987103,42.6889265 305.735298,62.5853296 319.181724,84.6623681 C332.62815,106.739407 337.046122,129.80397 332.435639,153.856059 C335.710558,179.791115 335.710558,198.422917 332.435639,209.751463 C329.16072,221.080009 319.594118,235.540843 303.735832,253.133964 L283.79062,253.133964" id="Path-3"></path>
                <circle id="Oval-4" fill="#000000" cx="159.5" cy="276.5" r="12.5"></circle>
                <circle id="Oval-4-Copy" fill="#000000" cx="99.5" cy="221.5" r="12.5"></circle>
                <circle id="Oval-4-Copy-2" fill="#000000" cx="254.5" cy="136.5" r="12.5"></circle>
                <circle id="Oval-4-Copy-8" fill="#000000" cx="334.5" cy="166.5" r="12.5"></circle>
                <circle id="Oval-4-Copy-5" fill="#000000" cx="229.5" cy="209.5" r="12.5"></circle>
                <circle id="Oval-4-Copy-6" fill="#000000" cx="184.5" cy="166.5" r="12.5"></circle>
                <circle id="Oval-4-Copy-7" fill="#000000" cx="197.5" cy="29.5" r="12.5"></circle>
                <circle id="Oval-4-Copy-3" fill="#000000" cx="146.5" cy="111.5" r="12.5"></circle>
                <circle id="Oval-4-Copy-9" fill="#000000" cx="12.5" cy="209.5" r="12.5"></circle>
                <circle id="Oval-4-Copy-4" fill="#000000" cx="64.5" cy="90.5" r="12.5"></circle>
            </g>
        </g>
    </g>
</svg>