<?xml version="1.0" encoding="UTF-8"?>
<svg width="768px" height="1024px" viewBox="0 0 768 1024" version="1.1" xmlns="http://www.w3.org/2000/svg" xmlns:xlink="http://www.w3.org/1999/xlink">
    <!-- Generator: Sketch 51.2 (57519) - http://www.bohemiancoding.com/sketch -->
    <title>OpeningScreen Copy</title>
    <desc>Created with Sketch.</desc>
    <defs>
        <ellipse class="img-piece" id="path-1" cx="388" cy="355" rx="346" ry="355"></ellipse>
        <filter x="-2.6%" y="-2.3%" width="105.2%" height="105.1%" filterUnits="objectBoundingBox" id="filter-2">
            <feMorphology radius="0.5" operator="dilate" in="SourceAlpha" result="shadowSpreadOuter1"></feMorphology>
            <feOffset dx="0" dy="2" in="shadowSpreadOuter1" result="shadowOffsetOuter1"></feOffset>
            <feGaussianBlur stdDeviation="5.5" in="shadowOffsetOuter1" result="shadowBlurOuter1"></feGaussianBlur>
            <feComposite in="shadowBlurOuter1" in2="SourceAlpha" operator="out" result="shadowBlurOuter1"></feComposite>
            <feColorMatrix values="0 0 0 0 0.850170195   0 0 0 0 0.742509067   0 0 0 0 0.64707464  0 0 0 1 0" type="matrix" in="shadowBlurOuter1"></feColorMatrix>
        </filter>
        <path class="img-piece" d="M206.5,276.200231 L275.5,276.200231" id="path-3"></path>
        <filter x="-2.1%" y="-50.0%" width="107.1%" height="266.7%" filterUnits="objectBoundingBox" id="filter-4">
            <feMorphology radius="0.5" operator="dilate" in="SourceAlpha" result="shadowSpreadOuter1"></feMorphology>
            <feOffset dx="1" dy="1" in="shadowSpreadOuter1" result="shadowOffsetOuter1"></feOffset>
            <feMorphology radius="1" operator="erode" in="SourceAlpha" result="shadowInner"></feMorphology>
            <feOffset dx="1" dy="1" in="shadowInner" result="shadowInner"></feOffset>
            <feComposite in="shadowOffsetOuter1" in2="shadowInner" operator="out" result="shadowOffsetOuter1"></feComposite>
            <feGaussianBlur stdDeviation="0.5" in="shadowOffsetOuter1" result="shadowBlurOuter1"></feGaussianBlur>
            <feColorMatrix values="0 0 0 0 0.690247101   0 0 0 0 0.739344175   0 0 0 0 0.733888945  0 0 0 1 0" type="matrix" in="shadowBlurOuter1"></feColorMatrix>
        </filter>
        <path class="img-piece" d="M497.493243,267.5 L569.506757,232.5" id="path-5"></path>
        <filter x="-1.4%" y="-2.8%" width="104.1%" height="108.3%" filterUnits="objectBoundingBox" id="filter-6">
            <feMorphology radius="0.5" operator="dilate" in="SourceAlpha" result="shadowSpreadOuter1"></feMorphology>
            <feOffset dx="1" dy="1" in="shadowSpreadOuter1" result="shadowOffsetOuter1"></feOffset>
            <feMorphology radius="1" operator="erode" in="SourceAlpha" result="shadowInner"></feMorphology>
            <feOffset dx="1" dy="1" in="shadowInner" result="shadowInner"></feOffset>
            <feComposite in="shadowOffsetOuter1" in2="shadowInner" operator="out" result="shadowOffsetOuter1"></feComposite>
            <feColorMatrix values="0 0 0 0 0.715981242   0 0 0 0 0.76469494   0 0 0 0 0.759282307  0 0 0 1 0" type="matrix" in="shadowOffsetOuter1"></feColorMatrix>
        </filter>
        <rect class="img-piece" id="path-7" x="0" y="179" width="194" height="170"></rect>
        <filter x="-3.6%" y="-2.9%" width="107.2%" height="108.2%" filterUnits="objectBoundingBox" id="filter-8">
            <feOffset dx="0" dy="2" in="SourceAlpha" result="shadowOffsetOuter1"></feOffset>
            <feGaussianBlur stdDeviation="2" in="shadowOffsetOuter1" result="shadowBlurOuter1"></feGaussianBlur>
            <feComposite in="shadowBlurOuter1" in2="SourceAlpha" operator="out" result="shadowBlurOuter1"></feComposite>
            <feColorMatrix values="0 0 0 0 0.586914003   0 0 0 0 0.68548733   0 0 0 0 0.675051928  0 0 0 1 0" type="matrix" in="shadowBlurOuter1"></feColorMatrix>
        </filter>
        <rect class="img-piece" id="path-9" x="291" y="179" width="194" height="170"></rect>
        <filter x="-3.6%" y="-2.9%" width="107.2%" height="108.2%" filterUnits="objectBoundingBox" id="filter-10">
            <feOffset dx="0" dy="2" in="SourceAlpha" result="shadowOffsetOuter1"></feOffset>
            <feGaussianBlur stdDeviation="2" in="shadowOffsetOuter1" result="shadowBlurOuter1"></feGaussianBlur>
            <feComposite in="shadowBlurOuter1" in2="SourceAlpha" operator="out" result="shadowBlurOuter1"></feComposite>
            <feColorMatrix values="0 0 0 0 0.586914003   0 0 0 0 0.68548733   0 0 0 0 0.675051928  0 0 0 1 0" type="matrix" in="shadowBlurOuter1"></feColorMatrix>
        </filter>
        <path class="img-piece" d="M213,550 C233.618503,515.333333 270.451836,498 323.5,498 C376.548164,498 413.381497,515.333333 434,550" id="path-11"></path>
        <filter x="-0.3%" y="-1.4%" width="100.7%" height="103.8%" filterUnits="objectBoundingBox" id="filter-12">
            <feMorphology radius="0.5" operator="dilate" in="SourceAlpha" result="shadowSpreadOuter1"></feMorphology>
            <feOffset dx="0" dy="0.5" in="shadowSpreadOuter1" result="shadowOffsetOuter1"></feOffset>
            <feComposite in="shadowOffsetOuter1" in2="SourceAlpha" operator="out" result="shadowOffsetOuter1"></feComposite>
            <feColorMatrix values="0 0 0 0 0   0 0 0 0 0   0 0 0 0 0  0 0 0 1 0" type="matrix" in="shadowOffsetOuter1"></feColorMatrix>
        </filter>
    </defs>
    <g id="OpeningScreen-Copy" stroke="none" stroke-width="1" fill="none" fill-rule="evenodd">
        <rect fill="#FFFFFF" x="0" y="0" width="768" height="1024"></rect>
        <g id="Background" transform="translate(-21.000000, -23.000000)" stroke="#000000">
            <g id="Group" fill="#FFFFFF">
                <path class="img-piece" d="M0.5,0.5 L0.5,159.814261 C26.5960031,190.067103 53.4272217,205.171875 81,205.171875 C108.572778,205.171875 135.403997,190.067103 161.5,159.814261 L161.5,0.5 L0.5,0.5 Z" id="Rectangle-2"></path>
                <path class="img-piece" d="M160.5,0.5 L160.5,159.814261 C186.596003,190.067103 213.427222,205.171875 241,205.171875 C268.572778,205.171875 295.403997,190.067103 321.5,159.814261 L321.5,0.5 L160.5,0.5 Z" id="Rectangle-2-Copy"></path>
                <path class="img-piece" d="M321.5,0.5 L321.5,159.814261 C347.596003,190.067103 374.427222,205.171875 402,205.171875 C429.572778,205.171875 456.403997,190.067103 482.5,159.814261 L482.5,0.5 L321.5,0.5 Z" id="Rectangle-2-Copy-2"></path>
                <path class="img-piece" d="M483.5,0.5 L483.5,159.814261 C509.596003,190.067103 536.427222,205.171875 564,205.171875 C591.572778,205.171875 618.403997,190.067103 644.5,159.814261 L644.5,0.5 L483.5,0.5 Z" id="Rectangle-2-Copy-3"></path>
                <path class="img-piece" d="M645.5,0.5 L645.5,159.814261 C671.596003,190.067103 698.427222,205.171875 726,205.171875 C753.572778,205.171875 780.403997,190.067103 806.5,159.814261 L806.5,0.5 L645.5,0.5 Z" id="Rectangle-2-Copy-4"></path>
            </g>
            <g id="Door" transform="translate(3.000000, 731.000000)">
                <rect class="img-piece" id="Rectangle-3" fill="#FFFEFE" x="18.5" y="0.5" width="223" height="315"></rect>
                <path class="img-piece" d="M89.5,14 L89.5,566" id="Line-3" stroke-width="16" stroke-linecap="square"></path>
                <g id="Group" fill="#FFFFFF">
                    <path class="img-piece" d="M0.5,0.5 L0.5,56.5882044 C10.7275578,67.2072066 21.224295,72.5 32,72.5 C42.775705,72.5 53.2724422,67.2072066 63.5,56.5882044 L63.5,0.5 L0.5,0.5 Z" id="Rectangle-2"></path>
                    <path class="img-piece" d="M64.5,0.5 L64.5,56.5882044 C74.7275578,67.2072066 85.224295,72.5 96,72.5 C106.775705,72.5 117.272442,67.2072066 127.5,56.5882044 L127.5,0.5 L64.5,0.5 Z" id="Rectangle-2-Copy"></path>
                    <path class="img-piece" d="M128.5,0.5 L128.5,56.5882044 C138.727558,67.2072066 149.224295,72.5 160,72.5 C170.775705,72.5 181.272442,67.2072066 191.5,56.5882044 L191.5,0.5 L128.5,0.5 Z" id="Rectangle-2-Copy-2"></path>
                    <path class="img-piece" d="M192.5,0.5 L192.5,56.5882044 C202.727558,67.2072066 213.224295,72.5 224,72.5 C234.775705,72.5 245.272442,67.2072066 255.5,56.5882044 L255.5,0.5 L192.5,0.5 Z" id="Rectangle-2-Copy-3"></path>
                </g>
            </g>
        </g>
        <g id="Face" transform="translate(224.000000, 353.000000)">
            <g class="img-piece" id="Oval">
                <use fill="black" fill-opacity="1" filter="url(#filter-2)" xlink:href="#path-1"></use>
                <use stroke="#000000" stroke-width="1" fill="#FFFFFF" fill-rule="evenodd" xlink:href="#path-1"></use>
            </g>
            <g class="img-piece" id="Line" stroke-linecap="square">
                <use fill="black" fill-opacity="1" filter="url(#filter-4)" xlink:href="#path-3"></use>
                <use stroke="#000000" stroke-width="1" xlink:href="#path-3"></use>
            </g>
            <g class="img-piece" id="Line" stroke-linecap="square">
                <use fill="black" fill-opacity="1" filter="url(#filter-6)" xlink:href="#path-5"></use>
                <use stroke="#000000" stroke-width="1" xlink:href="#path-5"></use>
            </g>
            <g class="img-piece" id="Rectangle">
                <use fill="black" fill-opacity="1" filter="url(#filter-8)" xlink:href="#path-7"></use>
                <rect stroke="#000000" stroke-width="1" stroke-linejoin="square" fill="#FFFFFF" fill-rule="evenodd" x="0.5" y="179.5" width="193" height="169"></rect>
            </g>
            <g class="img-piece" id="Rectangle-Copy">
                <use fill="black" fill-opacity="1" filter="url(#filter-10)" xlink:href="#path-9"></use>
                <rect stroke="#000000" stroke-width="1" stroke-linejoin="square" fill="#FFFFFF" fill-rule="evenodd" x="291.5" y="179.5" width="193" height="169"></rect>
            </g>
            <g class="img-piece" id="Path-2" transform="translate(323.500000, 524.000000) scale(1, -1) translate(-323.500000, -524.000000) ">
                <use fill="black" fill-opacity="1" filter="url(#filter-12)" xlink:href="#path-11"></use>
                <use stroke="#000000" stroke-width="1" fill="#FFFFFF" fill-rule="evenodd" xlink:href="#path-11"></use>
            </g>
        </g>
    </g>
</svg>