<?xml version="1.0" encoding="UTF-8"?>
<svg width="768px" height="1024px" viewBox="0 0 768 1024" version="1.1" xmlns="http://www.w3.org/2000/svg" xmlns:xlink="http://www.w3.org/1999/xlink">
    <!-- Generator: Sketch 51.2 (57519) - http://www.bohemiancoding.com/sketch -->
    <title>SpaghettiChallenge Copy</title>
    <desc>Created with Sketch.</desc>
    <defs></defs>
    <g id="SpaghettiChallenge-Copy" stroke="none" stroke-width="1" fill="none" fill-rule="evenodd">
        <rect fill="#FFFFFF" x="0" y="0" width="768" height="1024"></rect>
        <rect id="Rectangle-8" stroke="#000000" fill="#FFFFFF" x="0.5" y="0.5" width="767" height="1023"></rect>
        <path d="M0,598.5 C42.3333333,563.166667 103.833333,538.333333 184.5,524 C305.5,502.5 366,574.5 437,561.25 C560.5,524 579.49929,461.735054 638.5,448.5 C677.833807,439.676631 721.000473,452.509964 768,487 L768,1024 L0,1024 L0,598.5 Z" id="Path-16" stroke="#000000" fill="#FFFFFF"></path>
        <ellipse id="Oval" stroke="#000000" fill="#FFFFFF" cx="175" cy="237" rx="103" ry="98"></ellipse>
        <path d="M-1.02140518e-13,826.5 C5.59582779,812.771106 -43,812.771106 54.5,809.5 C152,806.228894 183,884 240.5,884 C298,884 389.11082,779.6916 424.5,765.5 C448.092787,756.038933 485.259453,756.038933 536,765.5 L652.5,809.5 L652.5,1024 L-1.02140518e-13,1024 C-3.73055186,901.48593 -3.73055186,835.652596 -1.02140518e-13,826.5 Z" id="Path-15" stroke="#000000" fill="#FFFFFF"></path>
        <path d="M566.351762,369.316183 C591.676763,381.842531 609,407.225549 609,436.5 C609,478.197499 573.854353,512 530.5,512 C487.145647,512 452,478.197499 452,436.5 C452,428.54753 453.278367,420.882228 455.648238,413.683817 C430.323237,401.157469 413,375.774451 413,346.5 C413,321.440714 425.69372,299.232902 445.234278,285.499998 C425.693719,271.767096 413,249.559284 413,224.5 C413,182.802501 448.145647,149 491.5,149 C491.690568,149 491.880977,149.000653 492.071226,149.001957 C491.366642,144.935402 491,140.758882 491,136.5 C491,94.8025014 526.145647,61 569.5,61 C591.173167,61 610.794917,69.4474999 625,83.105858 C639.205083,69.4474999 658.826833,61 680.5,61 C723.854353,61 759,94.8025014 759,136.5 C759,138.114646 758.947301,139.717454 758.843466,141.30692 C772.976852,128.118841 792.252624,120 813.5,120 C856.854353,120 892,153.802501 892,195.5 C892,221.627161 878.201369,244.654645 857.230772,258.209037 C865.305219,270.074834 870,284.260107 870,299.5 C870,341.197499 834.854353,375 791.5,375 C754.393983,375 723.301059,350.238776 715.109422,316.959113 C714.243085,316.986287 713.373207,317 712.5,317 C696.012523,317 680.712229,312.111317 668.080656,303.758871 C653.704653,319.248112 632.786416,329 609.5,329 C591.777309,329 575.426347,323.351375 562.287206,313.823892 C567.230441,323.711705 570,334.79478 570,346.5 C570,354.45247 568.721633,362.117772 566.351762,369.316183 Z M537.765725,285.5 C538.083231,285.72314 538.398929,285.948517 538.712794,286.176108 C538.546897,285.844268 538.383448,285.511082 538.22247,285.176572 C538.070641,285.284897 537.918392,285.392707 537.765725,285.5 Z" id="Combined-Shape" stroke="#000000" fill="#FFFFFF"></path>
        <path d="M607,365 C635,384.5 687.670118,476.817365 698,582.5 C704.886588,652.95509 689.719921,735.621757 652.5,830.5 L768,866 L768,568.5 L768,132.5 L727.5,132.5 C759.5,287.5 767.5,365 751.5,365 C735.5,365 717.666667,322.833333 698,238.5 L667,256 C697,289.333333 707.333333,306 698,306 C688.666667,306 641.833333,289.333333 557.5,256 L540.5,280.5 C602.5,284.833333 633.5,293.333333 633.5,306 C633.5,318.666667 597,318.666667 524,306 L506.5,365 C517.548049,362.214947 525.603827,360.327957 530.667334,359.339031 C566.178164,352.4036 591.622386,354.29059 607,365 Z" id="Path-20" stroke="#000000" fill="#FFFFFF"></path>
        <path d="M0,1024 L768,1024 L768,843 C749,818.666667 702.833333,806.5 629.5,806.5 C555,806.5 441.702628,933.820822 361,949 C280.297372,964.179178 203.636714,901.491457 139,898 C95.9088576,895.672362 49.5755243,906.172362 0,929.5 L0,1024 Z" id="Path-13" stroke="#000000" fill="#FFFFFF"></path>
    </g>
</svg>